<svg width="398" height="216" viewBox="0 0 398 216" fill="none" xmlns="http://www.w3.org/2000/svg">
<g clip-path="url(#clip0_33_2)">
<path d="M145.285 68C145.285 68.4267 145.05 68.8533 144.581 69.28C144.112 69.7067 143.386 69.9413 142.405 69.984C141.168 69.984 139.781 69.4933 138.245 68.512C136.752 67.5733 135.173 66.2933 133.509 64.672C131.845 63.008 130.181 61.152 128.517 59.104C126.853 57.056 125.253 54.944 123.717 52.768C122.181 50.5493 120.794 48.416 119.557 46.368C118.533 50.7627 117.701 54.4747 117.061 57.504C116.464 60.5333 115.888 62.8373 115.333 64.416C114.821 65.952 114.181 66.72 113.413 66.72C112.73 66.72 112.069 66.3147 111.429 65.504C110.832 64.6507 110.533 63.0507 110.533 60.704C110.533 59.4667 110.618 58.208 110.789 56.928C110.96 55.6053 111.258 54.048 111.685 52.256C112.112 50.4213 112.688 48.1173 113.413 45.344C112.944 44.96 112.645 44.576 112.517 44.192C112.389 43.808 112.325 43.3813 112.325 42.912C112.325 42.3147 112.496 41.7173 112.837 41.12C113.178 40.5227 113.84 40.0747 114.821 39.776C116.314 34.784 117.509 30.8373 118.405 27.936C119.301 24.992 120.09 22.9013 120.773 21.664C121.498 20.384 122.266 19.744 123.077 19.744C124.826 19.744 125.701 20.7893 125.701 22.88C125.701 23.648 125.338 25.3547 124.613 28C123.888 30.6027 122.778 34.6133 121.285 40.032C124.656 37.6 127.813 35.104 130.757 32.544C133.701 29.984 136.389 27.552 138.821 25.248C141.253 22.9013 143.386 20.8107 145.221 18.976C147.056 17.1413 148.549 15.6907 149.701 14.624C150.853 13.5573 151.621 13.024 152.005 13.024C152.73 13.024 153.328 13.2587 153.797 13.728C154.309 14.1973 154.565 14.7307 154.565 15.328C154.565 16.0533 154.266 16.7573 153.669 17.44C152.645 18.6347 151.28 20.192 149.573 22.112C147.866 24.032 145.946 26.1013 143.813 28.32C141.68 30.496 139.44 32.6293 137.093 34.72C134.789 36.8107 132.485 38.6667 130.181 40.288C127.877 41.8667 125.722 42.976 123.717 43.616C124.314 44.2987 124.912 45.0027 125.509 45.728C126.106 46.4533 126.661 47.1573 127.173 47.84C128.709 49.8453 130.458 51.9787 132.421 54.24C134.426 56.5013 136.453 58.656 138.501 60.704C140.549 62.7093 142.405 64.3733 144.069 65.696C144.88 66.4213 145.285 67.1893 145.285 68ZM235.634 38.304C235.634 38.816 234.887 39.392 233.394 40.032C231.943 40.672 229.981 41.3333 227.506 42.016C225.031 42.656 222.258 43.296 219.186 43.936C216.157 44.576 213.042 45.152 209.842 45.664C208.69 49.632 207.559 53.6427 206.45 57.696C205.341 61.7067 204.381 65.4827 203.57 69.024C203.399 69.7067 203.058 70.1973 202.546 70.496C202.077 70.8373 201.543 71.008 200.946 71.008C200.263 71.008 199.687 70.816 199.218 70.432C198.749 70.0907 198.514 69.6213 198.514 69.024C198.514 67.9573 198.727 66.4213 199.154 64.416C199.581 62.4107 200.135 60.0853 200.818 57.44C201.543 54.7947 202.29 51.9787 203.058 48.992C201.181 51.8933 199.111 54.624 196.85 57.184C194.589 59.744 192.221 62.0053 189.746 63.968C187.271 65.9307 184.733 67.4667 182.13 68.576C179.57 69.6853 176.989 70.24 174.386 70.24C170.333 70.24 167.367 69.1733 165.49 67.04C163.613 64.9067 162.674 61.7067 162.674 57.44C162.674 55.0507 162.951 52.6613 163.506 50.272C164.103 47.84 164.893 45.536 165.874 43.36C166.898 41.184 168.029 39.264 169.266 37.6C170.503 35.8933 171.783 34.5493 173.106 33.568C174.471 32.5867 175.773 32.096 177.01 32.096C179.399 32.096 181.17 32.7573 182.322 34.08C183.474 35.4027 184.05 37.0453 184.05 39.008C184.05 41.056 183.581 42.9973 182.642 44.832C181.703 46.6667 180.445 48.3307 178.866 49.824C177.287 51.3173 175.559 52.5973 173.682 53.664C171.805 54.688 169.949 55.392 168.114 55.776C168.071 56.16 168.05 56.544 168.05 56.928C168.05 59.9573 168.605 62.048 169.714 63.2C170.866 64.3093 172.679 64.864 175.154 64.864C177.543 64.864 180.061 64.1387 182.706 62.688C185.394 61.2373 188.082 59.1893 190.77 56.544C193.501 53.8987 196.103 50.8053 198.578 47.264C196.743 47.4773 195.037 47.648 193.458 47.776C191.922 47.8613 190.578 47.904 189.426 47.904C188.231 47.904 187.399 47.7333 186.93 47.392C186.503 47.0507 186.29 46.4747 186.29 45.664C186.29 45.3227 186.503 44.896 186.93 44.384C187.399 43.872 187.911 43.5947 188.466 43.552C190.941 43.3387 193.287 43.104 195.506 42.848C197.767 42.592 199.922 42.3147 201.97 42.016C203.079 40.1387 204.146 38.176 205.17 36.128C206.194 34.0373 207.154 31.904 208.05 29.728C208.861 26.8693 209.671 24.3093 210.482 22.048C211.335 19.7867 212.21 18.016 213.106 16.736C214.045 15.4133 215.026 14.752 216.05 14.752C216.519 14.752 216.925 14.9653 217.266 15.392C217.65 15.8187 217.842 16.416 217.842 17.184C217.842 17.7387 217.543 19.1467 216.946 21.408C216.349 23.6267 215.538 26.4213 214.514 29.792C213.533 33.12 212.466 36.7467 211.314 40.672C218.055 39.6053 223.261 38.6453 226.93 37.792C230.599 36.9387 232.925 36.512 233.906 36.512C234.461 36.512 234.887 36.704 235.186 37.088C235.485 37.4293 235.634 37.8347 235.634 38.304ZM168.818 50.976C170.482 50.08 172.082 48.928 173.618 47.52C175.154 46.112 176.413 44.64 177.394 43.104C178.418 41.568 178.93 40.1387 178.93 38.816C178.93 37.6213 178.375 37.024 177.266 37.024C176.37 37.024 175.367 37.7067 174.258 39.072C173.191 40.3947 172.167 42.1227 171.186 44.256C170.205 46.3893 169.415 48.6293 168.818 50.976ZM237.239 68.64C234.722 68.64 232.738 67.68 231.287 65.76C229.836 63.84 229.111 61.344 229.111 58.272C229.111 57.1627 229.26 55.9893 229.559 54.752C229.9 53.472 230.327 52.32 230.839 51.296C230.54 50.9973 230.306 50.592 230.135 50.08C229.964 49.5253 229.879 48.8427 229.879 48.032C229.879 45.5147 230.306 43.2107 231.159 41.12C232.012 39.0293 233.143 37.216 234.551 35.68C235.959 34.1013 237.516 32.8853 239.223 32.032C240.972 31.1787 242.743 30.752 244.535 30.752C247.479 30.752 249.868 31.8187 251.703 33.952C253.538 36.0427 254.455 39.2427 254.455 43.552C254.455 45.8133 254.114 48.1173 253.431 50.464C252.791 52.8107 251.895 55.072 250.743 57.248C249.634 59.424 248.332 61.3653 246.839 63.072C245.388 64.7787 243.831 66.144 242.167 67.168C240.546 68.1493 238.903 68.64 237.239 68.64ZM235.063 49.12C235.319 49.4613 235.447 49.9093 235.447 50.464C235.447 51.104 235.319 51.744 235.063 52.384C234.85 53.024 234.615 53.8987 234.359 55.008C234.103 56.1173 233.975 57.696 233.975 59.744C233.975 61.792 234.786 62.816 236.407 62.816C238.199 62.816 239.863 62.112 241.399 60.704C242.935 59.2533 244.3 57.3973 245.495 55.136C246.69 52.8747 247.607 50.464 248.247 47.904C248.93 45.3013 249.271 42.848 249.271 40.544C249.271 39.0507 248.994 38.0053 248.439 37.408C247.884 36.768 246.882 36.448 245.431 36.448C243.938 36.448 242.38 36.96 240.759 37.984C239.18 38.9653 237.858 40.3093 236.791 42.016C235.724 43.7227 235.191 45.6427 235.191 47.776C235.191 48.2453 235.148 48.6933 235.063 49.12ZM266.557 45.6C265.405 45.6 264.381 45.344 263.485 44.832C262.631 44.2773 262.205 43.68 262.205 43.04C262.205 42.656 262.866 42.2293 264.189 41.76C265.554 41.248 267.325 40.7573 269.501 40.288C271.677 39.8187 274.045 39.4347 276.605 39.136C279.207 38.8373 281.746 38.688 284.221 38.688C286.354 38.688 287.826 38.9653 288.637 39.52C289.447 40.032 289.853 40.608 289.853 41.248C289.853 41.76 289.106 42.2933 287.613 42.848C286.162 43.36 284.263 43.8293 281.917 44.256C279.613 44.64 277.095 44.96 274.365 45.216C271.677 45.472 269.074 45.6 266.557 45.6ZM22.7728 156.128C21.7061 156.128 20.5754 155.808 19.3808 155.168C18.1861 154.528 17.0768 153.483 16.0528 152.032C15.0714 150.581 14.2608 148.661 13.6208 146.272C12.9808 143.883 12.6608 140.939 12.6608 137.44C12.6608 134.667 13.0021 131.851 13.6848 128.992C14.4101 126.091 15.5194 123.36 17.0128 120.8C18.5488 118.197 20.5114 115.957 22.9008 114.08C25.3328 112.16 28.2768 110.837 31.7328 110.112C33.2261 109.771 34.9114 109.451 36.7887 109.152C38.7088 108.811 40.6501 108.512 42.6128 108.256C44.6181 107.957 46.4954 107.723 48.2448 107.552C50.0368 107.381 51.5514 107.296 52.7888 107.296C54.7941 107.296 56.2234 107.659 57.0768 108.384C57.9728 109.067 58.4208 109.728 58.4208 110.368C58.4208 110.795 58.2501 111.2 57.9088 111.584C57.5674 111.925 56.9061 112.139 55.9248 112.224C55.5408 112.267 54.7301 112.373 53.4928 112.544C52.2554 112.672 50.7621 112.864 49.0128 113.12C47.2634 113.376 45.4288 113.653 43.5088 113.952C41.6314 114.208 39.7968 114.485 38.0048 114.784C36.2554 115.04 34.7408 115.275 33.4608 115.488C29.9194 116.171 27.1248 117.344 25.0768 119.008C23.0288 120.672 21.5354 122.635 20.5968 124.896C19.6581 127.157 19.0608 129.483 18.8048 131.872C20.5114 131.488 22.3674 131.083 24.3728 130.656C26.4208 130.229 28.3834 129.845 30.2608 129.504C32.1381 129.12 33.7594 128.821 35.1248 128.608C36.5328 128.395 37.4714 128.288 37.9408 128.288C38.8368 128.288 39.3914 128.48 39.6048 128.864C39.8608 129.248 39.9888 129.739 39.9888 130.336C39.9888 131.488 38.1114 132.768 34.3568 134.176C30.6448 135.584 25.3754 136.779 18.5488 137.76C18.5488 139.211 18.5701 140.704 18.6128 142.24C18.6981 143.733 18.8261 145.12 18.9968 146.4C19.1674 147.68 19.3808 148.704 19.6368 149.472C19.8928 150.24 20.2341 150.624 20.6608 150.624C21.6421 150.624 22.9221 150.325 24.5008 149.728C26.1221 149.131 27.8074 148.405 29.5568 147.552C31.3061 146.699 32.9061 145.867 34.3568 145.056C35.8501 144.245 36.9381 143.605 37.6208 143.136C38.4314 142.624 39.3061 142.069 40.2448 141.472C41.1834 140.875 41.8874 140.576 42.3568 140.576C42.9541 140.576 43.2528 140.917 43.2528 141.6C43.2528 141.984 42.9114 142.731 42.2288 143.84C41.5888 144.949 40.6501 146.208 39.4128 147.616C38.1754 148.981 36.7034 150.325 34.9968 151.648C33.3328 152.928 31.4554 153.995 29.3648 154.848C27.3168 155.701 25.1194 156.128 22.7728 156.128ZM57.7053 157.216C57.0226 157.216 56.4466 156.939 55.9773 156.384C55.5079 155.829 55.2733 155.061 55.2733 154.08C55.2733 153.355 55.4226 152.16 55.7213 150.496C56.0626 148.789 56.4253 146.805 56.8093 144.544C57.2359 142.283 57.5986 139.936 57.8973 137.504C58.1959 135.029 58.3453 132.661 58.3453 130.4C58.3453 129.291 58.6226 128.48 59.1773 127.968C59.7746 127.413 60.4359 127.136 61.1613 127.136C61.8439 127.136 62.3559 127.563 62.6973 128.416C63.0386 129.269 63.1026 130.976 62.8893 133.536C64.8519 129.184 67.0066 125.685 69.3533 123.04C71.7426 120.352 74.1106 118.432 76.4573 117.28C78.8039 116.085 80.9159 115.488 82.7933 115.488C84.0306 115.488 84.9266 115.744 85.4813 116.256C86.0786 116.725 86.3773 117.259 86.3773 117.856C86.3773 118.667 86.0359 119.307 85.3533 119.776C84.7133 120.203 83.5826 120.715 81.9613 121.312C80.0839 122.037 78.3559 122.891 76.7773 123.872C75.2413 124.811 73.7693 126.048 72.3613 127.584C70.9959 129.12 69.6519 131.083 68.3293 133.472C67.0066 135.819 65.6839 138.72 64.3613 142.176C63.0386 145.632 61.6306 149.792 60.1373 154.656C59.8813 155.595 59.5399 156.256 59.1133 156.64C58.7293 157.024 58.2599 157.216 57.7053 157.216ZM90.1298 154.528C88.8924 154.528 87.7831 153.824 86.8018 152.416C85.8204 151.008 85.3298 149.195 85.3298 146.976C85.3298 144.544 85.6498 141.941 86.2898 139.168C86.9724 136.395 87.8044 133.579 88.7858 130.72C89.7671 127.819 90.7271 125.024 91.6658 122.336C91.8791 121.781 92.1778 121.376 92.5618 121.12C92.9884 120.821 93.6284 120.672 94.4818 120.672C96.0178 120.672 96.7858 121.419 96.7858 122.912C96.7858 123.253 96.6151 124.021 96.2738 125.216C95.9324 126.411 95.4844 127.883 94.9298 129.632C94.4178 131.381 93.8844 133.28 93.3298 135.328C92.7751 137.333 92.2844 139.36 91.8578 141.408C91.4311 143.456 91.1324 145.355 90.9618 147.104C91.6444 146.379 92.4124 145.269 93.2658 143.776C94.1618 142.283 95.1218 140.597 96.1458 138.72C97.1698 136.8 98.2364 134.88 99.3458 132.96C100.455 130.997 101.564 129.205 102.674 127.584C103.826 125.92 104.935 124.597 106.002 123.616C107.111 122.592 108.135 122.08 109.074 122.08C110.439 122.08 111.591 122.507 112.53 123.36C113.511 124.171 114.258 125.621 114.77 127.712C115.324 129.76 115.602 132.661 115.602 136.416C115.602 138.421 115.794 140.299 116.178 142.048C116.604 143.797 117.266 145.205 118.162 146.272C119.1 147.296 120.295 147.808 121.746 147.808C123.922 147.808 125.863 147.424 127.57 146.656C129.276 145.845 130.748 144.949 131.986 143.968C133.266 142.944 134.332 142.048 135.186 141.28C136.039 140.469 136.7 140.064 137.17 140.064C138.151 140.064 138.642 140.576 138.642 141.6C138.642 142.027 138.322 142.709 137.682 143.648C137.084 144.544 136.231 145.568 135.122 146.72C134.055 147.829 132.818 148.917 131.41 149.984C130.044 151.008 128.572 151.861 126.994 152.544C125.458 153.227 123.9 153.568 122.322 153.568C119.378 153.568 116.967 152.992 115.09 151.84C113.255 150.688 111.89 148.789 110.994 146.144C110.14 143.499 109.714 139.957 109.714 135.52C109.714 133.088 109.564 131.317 109.266 130.208C109.01 129.056 108.519 128.288 107.794 127.904C107.282 128.8 106.62 130.08 105.81 131.744C104.999 133.365 104.06 135.179 102.994 137.184C101.97 139.189 100.882 141.216 99.7298 143.264C98.6204 145.269 97.4898 147.125 96.3378 148.832C95.1858 150.539 94.0764 151.925 93.0098 152.992C91.9431 154.016 90.9831 154.528 90.1298 154.528ZM137.929 157.664C136.307 157.664 134.963 156.917 133.897 155.424C132.873 153.888 132.361 151.904 132.361 149.472C132.361 147.211 132.915 144.971 134.025 142.752C135.177 140.533 136.691 138.4 138.569 136.352C140.446 134.304 142.494 132.427 144.713 130.72C146.931 128.971 149.15 127.456 151.369 126.176C153.63 124.896 155.699 123.893 157.577 123.168C159.454 122.443 160.947 122.08 162.057 122.08C162.654 122.08 163.145 122.208 163.529 122.464C163.913 122.677 164.105 123.083 164.105 123.68C164.105 124.064 163.955 124.427 163.657 124.768C163.699 124.768 163.742 124.768 163.785 124.768C164.723 124.768 165.193 125.323 165.193 126.432C165.193 126.816 165.043 127.605 164.745 128.8C164.446 129.952 164.105 131.403 163.721 133.152C163.337 134.901 162.995 136.843 162.697 138.976C162.398 141.067 162.249 143.2 162.249 145.376C162.249 147.211 162.953 148.128 164.361 148.128C165.939 148.128 167.539 147.765 169.161 147.04C170.782 146.315 172.361 145.44 173.897 144.416C175.433 143.349 176.841 142.304 178.121 141.28C179.401 140.213 180.489 139.317 181.385 138.592C182.281 137.867 182.921 137.504 183.305 137.504C183.646 137.504 183.945 137.611 184.201 137.824C184.457 138.037 184.585 138.379 184.585 138.848C184.585 139.275 184.158 140.043 183.305 141.152C182.451 142.261 181.321 143.52 179.913 144.928C178.505 146.336 176.926 147.701 175.177 149.024C173.427 150.347 171.635 151.435 169.801 152.288C167.966 153.141 166.217 153.568 164.553 153.568C163.273 153.568 162.099 153.184 161.033 152.416C160.009 151.605 159.177 150.24 158.537 148.32C157.939 146.4 157.641 143.755 157.641 140.384V138.784C155.55 142.24 153.353 145.397 151.049 148.256C148.787 151.115 146.526 153.397 144.265 155.104C142.046 156.811 139.934 157.664 137.929 157.664ZM160.841 126.688C160.627 126.773 160.329 126.901 159.945 127.072C157.982 127.968 155.934 129.077 153.801 130.4C151.71 131.723 149.662 133.195 147.657 134.816C145.694 136.437 143.923 138.123 142.345 139.872C140.766 141.621 139.507 143.392 138.569 145.184C137.63 146.976 137.161 148.725 137.161 150.432C137.161 150.987 137.267 151.413 137.481 151.712C137.737 152.011 138.163 152.16 138.761 152.16C139.614 152.16 140.723 151.627 142.089 150.56C143.454 149.451 144.947 148 146.569 146.208C148.233 144.416 149.897 142.432 151.561 140.256C153.225 138.08 154.803 135.883 156.297 133.664C157.833 131.445 159.155 129.397 160.265 127.52C160.435 127.221 160.627 126.944 160.841 126.688ZM166.857 116.512C165.662 116.512 164.745 116.192 164.105 115.552C163.465 114.869 163.145 114.059 163.145 113.12C163.145 111.755 163.465 110.624 164.105 109.728C164.745 108.832 165.619 108.384 166.729 108.384C167.753 108.384 168.67 108.747 169.481 109.472C170.334 110.197 170.761 111.051 170.761 112.032C170.761 113.44 170.334 114.549 169.481 115.36C168.627 116.128 167.753 116.512 166.857 116.512ZM150.793 116.896C149.726 116.896 148.915 116.512 148.361 115.744C147.806 114.976 147.529 114.037 147.529 112.928C147.529 111.861 147.806 110.965 148.361 110.24C148.958 109.515 149.769 109.152 150.793 109.152C151.731 109.152 152.585 109.515 153.353 110.24C154.121 110.965 154.505 111.797 154.505 112.736C154.505 114.016 154.099 115.04 153.289 115.808C152.478 116.533 151.646 116.896 150.793 116.896ZM183.55 158.88C182.612 158.88 181.886 158.603 181.374 158.048C180.862 157.536 180.606 156.235 180.606 154.144C180.606 152.224 180.948 149.728 181.63 146.656C182.313 143.541 183.23 140.085 184.382 136.288C185.534 132.491 186.836 128.565 188.286 124.512C189.737 120.416 191.252 116.405 192.83 112.48C194.452 108.512 196.009 104.885 197.502 101.6C198.057 100.405 198.633 99.5733 199.23 99.104C199.828 98.6347 200.532 98.4 201.342 98.4C201.897 98.4 202.366 98.5707 202.75 98.912C203.177 99.2107 203.39 99.7227 203.39 100.448C203.39 100.704 203.113 101.536 202.558 102.944C202.046 104.352 201.321 106.208 200.382 108.512C199.486 110.816 198.484 113.397 197.374 116.256C196.265 119.115 195.134 122.123 193.982 125.28C192.83 128.437 191.742 131.616 190.718 134.816C189.694 137.973 188.82 141.003 188.094 143.904C187.369 146.805 186.878 149.408 186.622 151.712C187.646 150.475 188.82 148.896 190.142 146.976C191.465 145.056 192.873 142.987 194.366 140.768C195.86 138.549 197.374 136.352 198.91 134.176C200.446 132 201.961 130.016 203.454 128.224C204.948 126.432 206.334 125.003 207.614 123.936C208.937 122.827 210.089 122.272 211.07 122.272C212.692 122.272 213.993 122.784 214.974 123.808C215.998 124.789 216.51 126.411 216.51 128.672C216.51 129.952 216.254 131.488 215.742 133.28C215.273 135.072 214.718 136.949 214.078 138.912C213.438 140.875 212.862 142.752 212.35 144.544C211.881 146.336 211.646 147.872 211.646 149.152C211.646 150.901 212.308 151.776 213.63 151.776C215.678 151.776 217.726 151.328 219.774 150.432C221.865 149.536 223.849 148.427 225.726 147.104C227.604 145.739 229.332 144.373 230.91 143.008C232.489 141.6 233.833 140.405 234.942 139.424C236.137 138.357 237.14 137.824 237.95 137.824C238.974 137.824 239.486 138.357 239.486 139.424C239.486 139.723 239.422 140.064 239.294 140.448C239.166 140.832 238.825 141.323 238.27 141.92C237.588 142.688 236.606 143.691 235.326 144.928C234.089 146.165 232.638 147.488 230.974 148.896C229.353 150.304 227.582 151.627 225.662 152.864C223.785 154.101 221.844 155.125 219.838 155.936C217.876 156.704 215.956 157.088 214.078 157.088C211.518 157.088 209.534 156.363 208.126 154.912C206.761 153.419 206.078 151.371 206.078 148.768C206.078 147.147 206.334 145.184 206.846 142.88C207.358 140.576 207.998 138.144 208.766 135.584C209.577 132.981 210.388 130.443 211.198 127.968C209.833 128.907 208.34 130.315 206.718 132.192C205.14 134.027 203.476 136.117 201.726 138.464C199.977 140.768 198.228 143.115 196.478 145.504C194.772 147.893 193.108 150.112 191.486 152.16C189.908 154.165 188.436 155.787 187.07 157.024C185.705 158.261 184.532 158.88 183.55 158.88ZM237.705 157.216C237.023 157.216 236.447 156.939 235.977 156.384C235.508 155.829 235.273 155.061 235.273 154.08C235.273 153.355 235.423 152.16 235.721 150.496C236.063 148.789 236.425 146.805 236.809 144.544C237.236 142.283 237.599 139.936 237.897 137.504C238.196 135.029 238.345 132.661 238.345 130.4C238.345 129.291 238.623 128.48 239.177 127.968C239.775 127.413 240.436 127.136 241.161 127.136C241.844 127.136 242.356 127.563 242.697 128.416C243.039 129.269 243.103 130.976 242.889 133.536C244.852 129.184 247.007 125.685 249.353 123.04C251.743 120.352 254.111 118.432 256.457 117.28C258.804 116.085 260.916 115.488 262.793 115.488C264.031 115.488 264.927 115.744 265.481 116.256C266.079 116.725 266.377 117.259 266.377 117.856C266.377 118.667 266.036 119.307 265.353 119.776C264.713 120.203 263.583 120.715 261.961 121.312C260.084 122.037 258.356 122.891 256.777 123.872C255.241 124.811 253.769 126.048 252.361 127.584C250.996 129.12 249.652 131.083 248.329 133.472C247.007 135.819 245.684 138.72 244.361 142.176C243.039 145.632 241.631 149.792 240.137 154.656C239.881 155.595 239.54 156.256 239.113 156.64C238.729 157.024 238.26 157.216 237.705 157.216ZM284.569 157.536C283.843 157.536 283.225 157.216 282.713 156.576C282.201 155.936 281.945 154.997 281.945 153.76C281.945 152.309 282.158 150.24 282.585 147.552C283.054 144.864 283.737 141.301 284.633 136.864C283.481 139.595 282.201 142.176 280.793 144.608C279.427 147.04 277.977 149.024 276.441 150.56C274.905 152.096 273.326 152.864 271.705 152.864C270.126 152.864 268.718 152.245 267.481 151.008C266.286 149.771 265.689 147.595 265.689 144.48C265.689 142.731 265.838 140.768 266.137 138.592C266.435 136.373 266.819 134.176 267.289 132C267.758 129.824 268.227 127.883 268.697 126.176C269.166 124.427 269.593 123.147 269.977 122.336C270.275 121.653 270.574 121.205 270.873 120.992C271.171 120.736 271.577 120.608 272.089 120.608C272.686 120.608 273.326 120.864 274.009 121.376C274.691 121.888 275.033 122.741 275.033 123.936C275.033 124.235 274.883 124.939 274.585 126.048C274.329 127.115 273.987 128.437 273.561 130.016C273.177 131.552 272.771 133.216 272.345 135.008C271.918 136.8 271.555 138.592 271.257 140.384C271.001 142.176 270.873 143.819 270.873 145.312C270.873 146.123 270.958 146.784 271.129 147.296C271.299 147.808 271.726 148.064 272.409 148.064C273.006 148.064 273.753 147.467 274.649 146.272C275.587 145.077 276.59 143.499 277.657 141.536C278.766 139.531 279.897 137.312 281.049 134.88C282.243 132.448 283.395 129.952 284.505 127.392C285.657 124.832 286.702 122.4 287.641 120.096C287.982 119.328 288.345 118.859 288.729 118.688C289.113 118.475 289.539 118.368 290.009 118.368C290.777 118.368 291.459 118.688 292.057 119.328C292.697 119.925 293.017 120.715 293.017 121.696C293.017 122.336 292.889 123.445 292.633 125.024C292.419 126.603 292.099 128.459 291.673 130.592C291.289 132.683 290.841 134.901 290.329 137.248C289.859 139.595 289.39 141.92 288.921 144.224C288.451 146.485 288.003 148.555 287.577 150.432C287.193 152.309 286.873 153.824 286.617 154.976C286.403 156.043 286.105 156.725 285.721 157.024C285.379 157.365 284.995 157.536 284.569 157.536ZM306.192 154.528C304.955 154.528 303.846 153.824 302.864 152.416C301.883 151.008 301.392 149.195 301.392 146.976C301.392 144.544 301.712 141.941 302.352 139.168C303.035 136.395 303.867 133.579 304.848 130.72C305.83 127.819 306.79 125.024 307.728 122.336C307.942 121.781 308.24 121.376 308.624 121.12C309.051 120.821 309.691 120.672 310.544 120.672C312.08 120.672 312.848 121.419 312.848 122.912C312.848 123.253 312.678 124.021 312.336 125.216C311.995 126.411 311.547 127.883 310.992 129.632C310.48 131.381 309.947 133.28 309.392 135.328C308.838 137.333 308.347 139.36 307.92 141.408C307.494 143.456 307.195 145.355 307.024 147.104C307.707 146.379 308.475 145.269 309.328 143.776C310.224 142.283 311.184 140.597 312.208 138.72C313.232 136.8 314.299 134.88 315.408 132.96C316.518 130.997 317.627 129.205 318.736 127.584C319.888 125.92 320.998 124.597 322.064 123.616C323.174 122.592 324.198 122.08 325.136 122.08C326.502 122.08 327.654 122.507 328.592 123.36C329.574 124.171 330.32 125.621 330.832 127.712C331.387 129.76 331.664 132.661 331.664 136.416C331.664 138.421 331.856 140.299 332.24 142.048C332.667 143.797 333.328 145.205 334.224 146.272C335.163 147.296 336.358 147.808 337.808 147.808C339.984 147.808 341.926 147.424 343.632 146.656C345.339 145.845 346.811 144.949 348.048 143.968C349.328 142.944 350.395 142.048 351.248 141.28C352.102 140.469 352.763 140.064 353.232 140.064C354.214 140.064 354.704 140.576 354.704 141.6C354.704 142.027 354.384 142.709 353.744 143.648C353.147 144.544 352.294 145.568 351.184 146.72C350.118 147.829 348.88 148.917 347.472 149.984C346.107 151.008 344.635 151.861 343.056 152.544C341.52 153.227 339.963 153.568 338.384 153.568C335.44 153.568 333.03 152.992 331.152 151.84C329.318 150.688 327.952 148.789 327.056 146.144C326.203 143.499 325.776 139.957 325.776 135.52C325.776 133.088 325.627 131.317 325.328 130.208C325.072 129.056 324.582 128.288 323.856 127.904C323.344 128.8 322.683 130.08 321.872 131.744C321.062 133.365 320.123 135.179 319.056 137.184C318.032 139.189 316.944 141.216 315.792 143.264C314.683 145.269 313.552 147.125 312.4 148.832C311.248 150.539 310.139 151.925 309.072 152.992C308.006 154.016 307.046 154.528 306.192 154.528ZM354.631 172.896C351.346 172.896 348.935 172.576 347.399 171.936C345.863 171.296 345.095 170.443 345.095 169.376C345.095 168.693 345.309 168.139 345.735 167.712C346.205 167.285 346.781 167.072 347.463 167.072C348.189 167.072 349.234 167.179 350.599 167.392C351.965 167.648 353.309 167.776 354.631 167.776C359.026 167.776 362.631 166.475 365.447 163.872C368.263 161.269 370.418 157.28 371.911 151.904C373.405 146.485 374.407 139.573 374.919 131.168C373.639 133.771 372.189 136.373 370.567 138.976C368.989 141.536 367.282 143.883 365.447 146.016C363.655 148.107 361.799 149.792 359.879 151.072C357.959 152.352 356.061 152.992 354.183 152.992C352.391 152.992 351.069 152.544 350.215 151.648C349.405 150.752 348.999 149.28 348.999 147.232C348.999 145.397 349.511 143.456 350.535 141.408C351.559 139.317 352.925 137.227 354.631 135.136C356.338 133.045 358.215 131.061 360.263 129.184C362.311 127.264 364.359 125.579 366.407 124.128C368.498 122.635 370.439 121.461 372.231 120.608C374.023 119.755 375.474 119.328 376.583 119.328C377.693 119.328 378.546 119.712 379.143 120.48C379.741 121.248 380.039 122.699 380.039 124.832C380.039 129.824 379.869 134.688 379.527 139.424C379.229 144.117 378.61 148.491 377.671 152.544C376.733 156.597 375.325 160.139 373.447 163.168C371.613 166.24 369.159 168.629 366.087 170.336C363.015 172.043 359.197 172.896 354.631 172.896ZM373.767 124.896C371.634 126.261 369.437 127.797 367.175 129.504C364.914 131.211 362.802 133.024 360.839 134.944C358.919 136.864 357.362 138.848 356.167 140.896C354.973 142.944 354.375 144.992 354.375 147.04C354.375 147.68 354.781 148 355.591 148C356.231 148 357.106 147.509 358.215 146.528C359.367 145.504 360.647 144.16 362.055 142.496C363.463 140.789 364.893 138.933 366.343 136.928C367.837 134.88 369.223 132.811 370.503 130.72C371.783 128.629 372.871 126.688 373.767 124.896Z" fill="#513E3E"/>
<path d="M147.285 69C147.285 69.4267 147.05 69.8533 146.581 70.28C146.112 70.7067 145.386 70.9413 144.405 70.984C143.168 70.984 141.781 70.4933 140.245 69.512C138.752 68.5733 137.173 67.2933 135.509 65.672C133.845 64.008 132.181 62.152 130.517 60.104C128.853 58.056 127.253 55.944 125.717 53.768C124.181 51.5493 122.794 49.416 121.557 47.368C120.533 51.7627 119.701 55.4747 119.061 58.504C118.464 61.5333 117.888 63.8373 117.333 65.416C116.821 66.952 116.181 67.72 115.413 67.72C114.73 67.72 114.069 67.3147 113.429 66.504C112.832 65.6507 112.533 64.0507 112.533 61.704C112.533 60.4667 112.618 59.208 112.789 57.928C112.96 56.6053 113.258 55.048 113.685 53.256C114.112 51.4213 114.688 49.1173 115.413 46.344C114.944 45.96 114.645 45.576 114.517 45.192C114.389 44.808 114.325 44.3813 114.325 43.912C114.325 43.3147 114.496 42.7173 114.837 42.12C115.178 41.5227 115.84 41.0747 116.821 40.776C118.314 35.784 119.509 31.8373 120.405 28.936C121.301 25.992 122.09 23.9013 122.773 22.664C123.498 21.384 124.266 20.744 125.077 20.744C126.826 20.744 127.701 21.7893 127.701 23.88C127.701 24.648 127.338 26.3547 126.613 29C125.888 31.6027 124.778 35.6133 123.285 41.032C126.656 38.6 129.813 36.104 132.757 33.544C135.701 30.984 138.389 28.552 140.821 26.248C143.253 23.9013 145.386 21.8107 147.221 19.976C149.056 18.1413 150.549 16.6907 151.701 15.624C152.853 14.5573 153.621 14.024 154.005 14.024C154.73 14.024 155.328 14.2587 155.797 14.728C156.309 15.1973 156.565 15.7307 156.565 16.328C156.565 17.0533 156.266 17.7573 155.669 18.44C154.645 19.6347 153.28 21.192 151.573 23.112C149.866 25.032 147.946 27.1013 145.813 29.32C143.68 31.496 141.44 33.6293 139.093 35.72C136.789 37.8107 134.485 39.6667 132.181 41.288C129.877 42.8667 127.722 43.976 125.717 44.616C126.314 45.2987 126.912 46.0027 127.509 46.728C128.106 47.4533 128.661 48.1573 129.173 48.84C130.709 50.8453 132.458 52.9787 134.421 55.24C136.426 57.5013 138.453 59.656 140.501 61.704C142.549 63.7093 144.405 65.3733 146.069 66.696C146.88 67.4213 147.285 68.1893 147.285 69ZM237.634 39.304C237.634 39.816 236.887 40.392 235.394 41.032C233.943 41.672 231.981 42.3333 229.506 43.016C227.031 43.656 224.258 44.296 221.186 44.936C218.157 45.576 215.042 46.152 211.842 46.664C210.69 50.632 209.559 54.6427 208.45 58.696C207.341 62.7067 206.381 66.4827 205.57 70.024C205.399 70.7067 205.058 71.1973 204.546 71.496C204.077 71.8373 203.543 72.008 202.946 72.008C202.263 72.008 201.687 71.816 201.218 71.432C200.749 71.0907 200.514 70.6213 200.514 70.024C200.514 68.9573 200.727 67.4213 201.154 65.416C201.581 63.4107 202.135 61.0853 202.818 58.44C203.543 55.7947 204.29 52.9787 205.058 49.992C203.181 52.8933 201.111 55.624 198.85 58.184C196.589 60.744 194.221 63.0053 191.746 64.968C189.271 66.9307 186.733 68.4667 184.13 69.576C181.57 70.6853 178.989 71.24 176.386 71.24C172.333 71.24 169.367 70.1733 167.49 68.04C165.613 65.9067 164.674 62.7067 164.674 58.44C164.674 56.0507 164.951 53.6613 165.506 51.272C166.103 48.84 166.893 46.536 167.874 44.36C168.898 42.184 170.029 40.264 171.266 38.6C172.503 36.8933 173.783 35.5493 175.106 34.568C176.471 33.5867 177.773 33.096 179.01 33.096C181.399 33.096 183.17 33.7573 184.322 35.08C185.474 36.4027 186.05 38.0453 186.05 40.008C186.05 42.056 185.581 43.9973 184.642 45.832C183.703 47.6667 182.445 49.3307 180.866 50.824C179.287 52.3173 177.559 53.5973 175.682 54.664C173.805 55.688 171.949 56.392 170.114 56.776C170.071 57.16 170.05 57.544 170.05 57.928C170.05 60.9573 170.605 63.048 171.714 64.2C172.866 65.3093 174.679 65.864 177.154 65.864C179.543 65.864 182.061 65.1387 184.706 63.688C187.394 62.2373 190.082 60.1893 192.77 57.544C195.501 54.8987 198.103 51.8053 200.578 48.264C198.743 48.4773 197.037 48.648 195.458 48.776C193.922 48.8613 192.578 48.904 191.426 48.904C190.231 48.904 189.399 48.7333 188.93 48.392C188.503 48.0507 188.29 47.4747 188.29 46.664C188.29 46.3227 188.503 45.896 188.93 45.384C189.399 44.872 189.911 44.5947 190.466 44.552C192.941 44.3387 195.287 44.104 197.506 43.848C199.767 43.592 201.922 43.3147 203.97 43.016C205.079 41.1387 206.146 39.176 207.17 37.128C208.194 35.0373 209.154 32.904 210.05 30.728C210.861 27.8693 211.671 25.3093 212.482 23.048C213.335 20.7867 214.21 19.016 215.106 17.736C216.045 16.4133 217.026 15.752 218.05 15.752C218.519 15.752 218.925 15.9653 219.266 16.392C219.65 16.8187 219.842 17.416 219.842 18.184C219.842 18.7387 219.543 20.1467 218.946 22.408C218.349 24.6267 217.538 27.4213 216.514 30.792C215.533 34.12 214.466 37.7467 213.314 41.672C220.055 40.6053 225.261 39.6453 228.93 38.792C232.599 37.9387 234.925 37.512 235.906 37.512C236.461 37.512 236.887 37.704 237.186 38.088C237.485 38.4293 237.634 38.8347 237.634 39.304ZM170.818 51.976C172.482 51.08 174.082 49.928 175.618 48.52C177.154 47.112 178.413 45.64 179.394 44.104C180.418 42.568 180.93 41.1387 180.93 39.816C180.93 38.6213 180.375 38.024 179.266 38.024C178.37 38.024 177.367 38.7067 176.258 40.072C175.191 41.3947 174.167 43.1227 173.186 45.256C172.205 47.3893 171.415 49.6293 170.818 51.976ZM239.239 69.64C236.722 69.64 234.738 68.68 233.287 66.76C231.836 64.84 231.111 62.344 231.111 59.272C231.111 58.1627 231.26 56.9893 231.559 55.752C231.9 54.472 232.327 53.32 232.839 52.296C232.54 51.9973 232.306 51.592 232.135 51.08C231.964 50.5253 231.879 49.8427 231.879 49.032C231.879 46.5147 232.306 44.2107 233.159 42.12C234.012 40.0293 235.143 38.216 236.551 36.68C237.959 35.1013 239.516 33.8853 241.223 33.032C242.972 32.1787 244.743 31.752 246.535 31.752C249.479 31.752 251.868 32.8187 253.703 34.952C255.538 37.0427 256.455 40.2427 256.455 44.552C256.455 46.8133 256.114 49.1173 255.431 51.464C254.791 53.8107 253.895 56.072 252.743 58.248C251.634 60.424 250.332 62.3653 248.839 64.072C247.388 65.7787 245.831 67.144 244.167 68.168C242.546 69.1493 240.903 69.64 239.239 69.64ZM237.063 50.12C237.319 50.4613 237.447 50.9093 237.447 51.464C237.447 52.104 237.319 52.744 237.063 53.384C236.85 54.024 236.615 54.8987 236.359 56.008C236.103 57.1173 235.975 58.696 235.975 60.744C235.975 62.792 236.786 63.816 238.407 63.816C240.199 63.816 241.863 63.112 243.399 61.704C244.935 60.2533 246.3 58.3973 247.495 56.136C248.69 53.8747 249.607 51.464 250.247 48.904C250.93 46.3013 251.271 43.848 251.271 41.544C251.271 40.0507 250.994 39.0053 250.439 38.408C249.884 37.768 248.882 37.448 247.431 37.448C245.938 37.448 244.38 37.96 242.759 38.984C241.18 39.9653 239.858 41.3093 238.791 43.016C237.724 44.7227 237.191 46.6427 237.191 48.776C237.191 49.2453 237.148 49.6933 237.063 50.12ZM268.557 46.6C267.405 46.6 266.381 46.344 265.485 45.832C264.631 45.2773 264.205 44.68 264.205 44.04C264.205 43.656 264.866 43.2293 266.189 42.76C267.554 42.248 269.325 41.7573 271.501 41.288C273.677 40.8187 276.045 40.4347 278.605 40.136C281.207 39.8373 283.746 39.688 286.221 39.688C288.354 39.688 289.826 39.9653 290.637 40.52C291.447 41.032 291.853 41.608 291.853 42.248C291.853 42.76 291.106 43.2933 289.613 43.848C288.162 44.36 286.263 44.8293 283.917 45.256C281.613 45.64 279.095 45.96 276.365 46.216C273.677 46.472 271.074 46.6 268.557 46.6ZM24.7728 157.128C23.7061 157.128 22.5754 156.808 21.3808 156.168C20.1861 155.528 19.0768 154.483 18.0528 153.032C17.0714 151.581 16.2608 149.661 15.6208 147.272C14.9808 144.883 14.6608 141.939 14.6608 138.44C14.6608 135.667 15.0021 132.851 15.6848 129.992C16.4101 127.091 17.5194 124.36 19.0128 121.8C20.5488 119.197 22.5114 116.957 24.9008 115.08C27.3328 113.16 30.2768 111.837 33.7328 111.112C35.2261 110.771 36.9114 110.451 38.7887 110.152C40.7088 109.811 42.6501 109.512 44.6128 109.256C46.6181 108.957 48.4954 108.723 50.2448 108.552C52.0368 108.381 53.5514 108.296 54.7888 108.296C56.7941 108.296 58.2234 108.659 59.0768 109.384C59.9728 110.067 60.4208 110.728 60.4208 111.368C60.4208 111.795 60.2501 112.2 59.9088 112.584C59.5674 112.925 58.9061 113.139 57.9248 113.224C57.5408 113.267 56.7301 113.373 55.4928 113.544C54.2554 113.672 52.7621 113.864 51.0128 114.12C49.2634 114.376 47.4288 114.653 45.5088 114.952C43.6314 115.208 41.7968 115.485 40.0048 115.784C38.2554 116.04 36.7408 116.275 35.4608 116.488C31.9194 117.171 29.1248 118.344 27.0768 120.008C25.0288 121.672 23.5354 123.635 22.5968 125.896C21.6581 128.157 21.0608 130.483 20.8048 132.872C22.5114 132.488 24.3674 132.083 26.3728 131.656C28.4208 131.229 30.3834 130.845 32.2608 130.504C34.1381 130.12 35.7594 129.821 37.1248 129.608C38.5328 129.395 39.4714 129.288 39.9408 129.288C40.8368 129.288 41.3914 129.48 41.6048 129.864C41.8608 130.248 41.9888 130.739 41.9888 131.336C41.9888 132.488 40.1114 133.768 36.3568 135.176C32.6448 136.584 27.3754 137.779 20.5488 138.76C20.5488 140.211 20.5701 141.704 20.6128 143.24C20.6981 144.733 20.8261 146.12 20.9968 147.4C21.1674 148.68 21.3808 149.704 21.6368 150.472C21.8928 151.24 22.2341 151.624 22.6608 151.624C23.6421 151.624 24.9221 151.325 26.5008 150.728C28.1221 150.131 29.8074 149.405 31.5568 148.552C33.3061 147.699 34.9061 146.867 36.3568 146.056C37.8501 145.245 38.9381 144.605 39.6208 144.136C40.4314 143.624 41.3061 143.069 42.2448 142.472C43.1834 141.875 43.8874 141.576 44.3568 141.576C44.9541 141.576 45.2528 141.917 45.2528 142.6C45.2528 142.984 44.9114 143.731 44.2288 144.84C43.5888 145.949 42.6501 147.208 41.4128 148.616C40.1754 149.981 38.7034 151.325 36.9968 152.648C35.3328 153.928 33.4554 154.995 31.3648 155.848C29.3168 156.701 27.1194 157.128 24.7728 157.128ZM59.7053 158.216C59.0226 158.216 58.4466 157.939 57.9773 157.384C57.5079 156.829 57.2733 156.061 57.2733 155.08C57.2733 154.355 57.4226 153.16 57.7213 151.496C58.0626 149.789 58.4253 147.805 58.8093 145.544C59.2359 143.283 59.5986 140.936 59.8973 138.504C60.1959 136.029 60.3453 133.661 60.3453 131.4C60.3453 130.291 60.6226 129.48 61.1773 128.968C61.7746 128.413 62.4359 128.136 63.1613 128.136C63.8439 128.136 64.3559 128.563 64.6973 129.416C65.0386 130.269 65.1026 131.976 64.8893 134.536C66.8519 130.184 69.0066 126.685 71.3533 124.04C73.7426 121.352 76.1106 119.432 78.4573 118.28C80.8039 117.085 82.9159 116.488 84.7933 116.488C86.0306 116.488 86.9266 116.744 87.4813 117.256C88.0786 117.725 88.3773 118.259 88.3773 118.856C88.3773 119.667 88.0359 120.307 87.3533 120.776C86.7133 121.203 85.5826 121.715 83.9613 122.312C82.0839 123.037 80.3559 123.891 78.7773 124.872C77.2413 125.811 75.7693 127.048 74.3613 128.584C72.9959 130.12 71.6519 132.083 70.3293 134.472C69.0066 136.819 67.6839 139.72 66.3613 143.176C65.0386 146.632 63.6306 150.792 62.1373 155.656C61.8813 156.595 61.5399 157.256 61.1133 157.64C60.7293 158.024 60.2599 158.216 59.7053 158.216ZM92.1298 155.528C90.8924 155.528 89.7831 154.824 88.8018 153.416C87.8204 152.008 87.3298 150.195 87.3298 147.976C87.3298 145.544 87.6498 142.941 88.2898 140.168C88.9724 137.395 89.8044 134.579 90.7858 131.72C91.7671 128.819 92.7271 126.024 93.6658 123.336C93.8791 122.781 94.1778 122.376 94.5618 122.12C94.9884 121.821 95.6284 121.672 96.4818 121.672C98.0178 121.672 98.7858 122.419 98.7858 123.912C98.7858 124.253 98.6151 125.021 98.2738 126.216C97.9324 127.411 97.4844 128.883 96.9298 130.632C96.4178 132.381 95.8844 134.28 95.3298 136.328C94.7751 138.333 94.2844 140.36 93.8578 142.408C93.4311 144.456 93.1324 146.355 92.9618 148.104C93.6444 147.379 94.4124 146.269 95.2658 144.776C96.1618 143.283 97.1218 141.597 98.1458 139.72C99.1698 137.8 100.236 135.88 101.346 133.96C102.455 131.997 103.564 130.205 104.674 128.584C105.826 126.92 106.935 125.597 108.002 124.616C109.111 123.592 110.135 123.08 111.074 123.08C112.439 123.08 113.591 123.507 114.53 124.36C115.511 125.171 116.258 126.621 116.77 128.712C117.324 130.76 117.602 133.661 117.602 137.416C117.602 139.421 117.794 141.299 118.178 143.048C118.604 144.797 119.266 146.205 120.162 147.272C121.1 148.296 122.295 148.808 123.746 148.808C125.922 148.808 127.863 148.424 129.57 147.656C131.276 146.845 132.748 145.949 133.986 144.968C135.266 143.944 136.332 143.048 137.186 142.28C138.039 141.469 138.7 141.064 139.17 141.064C140.151 141.064 140.642 141.576 140.642 142.6C140.642 143.027 140.322 143.709 139.682 144.648C139.084 145.544 138.231 146.568 137.122 147.72C136.055 148.829 134.818 149.917 133.41 150.984C132.044 152.008 130.572 152.861 128.994 153.544C127.458 154.227 125.9 154.568 124.322 154.568C121.378 154.568 118.967 153.992 117.09 152.84C115.255 151.688 113.89 149.789 112.994 147.144C112.14 144.499 111.714 140.957 111.714 136.52C111.714 134.088 111.564 132.317 111.266 131.208C111.01 130.056 110.519 129.288 109.794 128.904C109.282 129.8 108.62 131.08 107.81 132.744C106.999 134.365 106.06 136.179 104.994 138.184C103.97 140.189 102.882 142.216 101.73 144.264C100.62 146.269 99.4898 148.125 98.3378 149.832C97.1858 151.539 96.0764 152.925 95.0098 153.992C93.9431 155.016 92.9831 155.528 92.1298 155.528ZM139.929 158.664C138.307 158.664 136.963 157.917 135.897 156.424C134.873 154.888 134.361 152.904 134.361 150.472C134.361 148.211 134.915 145.971 136.025 143.752C137.177 141.533 138.691 139.4 140.569 137.352C142.446 135.304 144.494 133.427 146.713 131.72C148.931 129.971 151.15 128.456 153.369 127.176C155.63 125.896 157.699 124.893 159.577 124.168C161.454 123.443 162.947 123.08 164.057 123.08C164.654 123.08 165.145 123.208 165.529 123.464C165.913 123.677 166.105 124.083 166.105 124.68C166.105 125.064 165.955 125.427 165.657 125.768C165.699 125.768 165.742 125.768 165.785 125.768C166.723 125.768 167.193 126.323 167.193 127.432C167.193 127.816 167.043 128.605 166.745 129.8C166.446 130.952 166.105 132.403 165.721 134.152C165.337 135.901 164.995 137.843 164.697 139.976C164.398 142.067 164.249 144.2 164.249 146.376C164.249 148.211 164.953 149.128 166.361 149.128C167.939 149.128 169.539 148.765 171.161 148.04C172.782 147.315 174.361 146.44 175.897 145.416C177.433 144.349 178.841 143.304 180.121 142.28C181.401 141.213 182.489 140.317 183.385 139.592C184.281 138.867 184.921 138.504 185.305 138.504C185.646 138.504 185.945 138.611 186.201 138.824C186.457 139.037 186.585 139.379 186.585 139.848C186.585 140.275 186.158 141.043 185.305 142.152C184.451 143.261 183.321 144.52 181.913 145.928C180.505 147.336 178.926 148.701 177.177 150.024C175.427 151.347 173.635 152.435 171.801 153.288C169.966 154.141 168.217 154.568 166.553 154.568C165.273 154.568 164.099 154.184 163.033 153.416C162.009 152.605 161.177 151.24 160.537 149.32C159.939 147.4 159.641 144.755 159.641 141.384V139.784C157.55 143.24 155.353 146.397 153.049 149.256C150.787 152.115 148.526 154.397 146.265 156.104C144.046 157.811 141.934 158.664 139.929 158.664ZM162.841 127.688C162.627 127.773 162.329 127.901 161.945 128.072C159.982 128.968 157.934 130.077 155.801 131.4C153.71 132.723 151.662 134.195 149.657 135.816C147.694 137.437 145.923 139.123 144.345 140.872C142.766 142.621 141.507 144.392 140.569 146.184C139.63 147.976 139.161 149.725 139.161 151.432C139.161 151.987 139.267 152.413 139.481 152.712C139.737 153.011 140.163 153.16 140.761 153.16C141.614 153.16 142.723 152.627 144.089 151.56C145.454 150.451 146.947 149 148.569 147.208C150.233 145.416 151.897 143.432 153.561 141.256C155.225 139.08 156.803 136.883 158.297 134.664C159.833 132.445 161.155 130.397 162.265 128.52C162.435 128.221 162.627 127.944 162.841 127.688ZM168.857 117.512C167.662 117.512 166.745 117.192 166.105 116.552C165.465 115.869 165.145 115.059 165.145 114.12C165.145 112.755 165.465 111.624 166.105 110.728C166.745 109.832 167.619 109.384 168.729 109.384C169.753 109.384 170.67 109.747 171.481 110.472C172.334 111.197 172.761 112.051 172.761 113.032C172.761 114.44 172.334 115.549 171.481 116.36C170.627 117.128 169.753 117.512 168.857 117.512ZM152.793 117.896C151.726 117.896 150.915 117.512 150.361 116.744C149.806 115.976 149.529 115.037 149.529 113.928C149.529 112.861 149.806 111.965 150.361 111.24C150.958 110.515 151.769 110.152 152.793 110.152C153.731 110.152 154.585 110.515 155.353 111.24C156.121 111.965 156.505 112.797 156.505 113.736C156.505 115.016 156.099 116.04 155.289 116.808C154.478 117.533 153.646 117.896 152.793 117.896ZM185.55 159.88C184.612 159.88 183.886 159.603 183.374 159.048C182.862 158.536 182.606 157.235 182.606 155.144C182.606 153.224 182.948 150.728 183.63 147.656C184.313 144.541 185.23 141.085 186.382 137.288C187.534 133.491 188.836 129.565 190.286 125.512C191.737 121.416 193.252 117.405 194.83 113.48C196.452 109.512 198.009 105.885 199.502 102.6C200.057 101.405 200.633 100.573 201.23 100.104C201.828 99.6347 202.532 99.4 203.342 99.4C203.897 99.4 204.366 99.5707 204.75 99.912C205.177 100.211 205.39 100.723 205.39 101.448C205.39 101.704 205.113 102.536 204.558 103.944C204.046 105.352 203.321 107.208 202.382 109.512C201.486 111.816 200.484 114.397 199.374 117.256C198.265 120.115 197.134 123.123 195.982 126.28C194.83 129.437 193.742 132.616 192.718 135.816C191.694 138.973 190.82 142.003 190.094 144.904C189.369 147.805 188.878 150.408 188.622 152.712C189.646 151.475 190.82 149.896 192.142 147.976C193.465 146.056 194.873 143.987 196.366 141.768C197.86 139.549 199.374 137.352 200.91 135.176C202.446 133 203.961 131.016 205.454 129.224C206.948 127.432 208.334 126.003 209.614 124.936C210.937 123.827 212.089 123.272 213.07 123.272C214.692 123.272 215.993 123.784 216.974 124.808C217.998 125.789 218.51 127.411 218.51 129.672C218.51 130.952 218.254 132.488 217.742 134.28C217.273 136.072 216.718 137.949 216.078 139.912C215.438 141.875 214.862 143.752 214.35 145.544C213.881 147.336 213.646 148.872 213.646 150.152C213.646 151.901 214.308 152.776 215.63 152.776C217.678 152.776 219.726 152.328 221.774 151.432C223.865 150.536 225.849 149.427 227.726 148.104C229.604 146.739 231.332 145.373 232.91 144.008C234.489 142.6 235.833 141.405 236.942 140.424C238.137 139.357 239.14 138.824 239.95 138.824C240.974 138.824 241.486 139.357 241.486 140.424C241.486 140.723 241.422 141.064 241.294 141.448C241.166 141.832 240.825 142.323 240.27 142.92C239.588 143.688 238.606 144.691 237.326 145.928C236.089 147.165 234.638 148.488 232.974 149.896C231.353 151.304 229.582 152.627 227.662 153.864C225.785 155.101 223.844 156.125 221.838 156.936C219.876 157.704 217.956 158.088 216.078 158.088C213.518 158.088 211.534 157.363 210.126 155.912C208.761 154.419 208.078 152.371 208.078 149.768C208.078 148.147 208.334 146.184 208.846 143.88C209.358 141.576 209.998 139.144 210.766 136.584C211.577 133.981 212.388 131.443 213.198 128.968C211.833 129.907 210.34 131.315 208.718 133.192C207.14 135.027 205.476 137.117 203.726 139.464C201.977 141.768 200.228 144.115 198.478 146.504C196.772 148.893 195.108 151.112 193.486 153.16C191.908 155.165 190.436 156.787 189.07 158.024C187.705 159.261 186.532 159.88 185.55 159.88ZM239.705 158.216C239.023 158.216 238.447 157.939 237.977 157.384C237.508 156.829 237.273 156.061 237.273 155.08C237.273 154.355 237.423 153.16 237.721 151.496C238.063 149.789 238.425 147.805 238.809 145.544C239.236 143.283 239.599 140.936 239.897 138.504C240.196 136.029 240.345 133.661 240.345 131.4C240.345 130.291 240.623 129.48 241.177 128.968C241.775 128.413 242.436 128.136 243.161 128.136C243.844 128.136 244.356 128.563 244.697 129.416C245.039 130.269 245.103 131.976 244.889 134.536C246.852 130.184 249.007 126.685 251.353 124.04C253.743 121.352 256.111 119.432 258.457 118.28C260.804 117.085 262.916 116.488 264.793 116.488C266.031 116.488 266.927 116.744 267.481 117.256C268.079 117.725 268.377 118.259 268.377 118.856C268.377 119.667 268.036 120.307 267.353 120.776C266.713 121.203 265.583 121.715 263.961 122.312C262.084 123.037 260.356 123.891 258.777 124.872C257.241 125.811 255.769 127.048 254.361 128.584C252.996 130.12 251.652 132.083 250.329 134.472C249.007 136.819 247.684 139.72 246.361 143.176C245.039 146.632 243.631 150.792 242.137 155.656C241.881 156.595 241.54 157.256 241.113 157.64C240.729 158.024 240.26 158.216 239.705 158.216ZM286.569 158.536C285.843 158.536 285.225 158.216 284.713 157.576C284.201 156.936 283.945 155.997 283.945 154.76C283.945 153.309 284.158 151.24 284.585 148.552C285.054 145.864 285.737 142.301 286.633 137.864C285.481 140.595 284.201 143.176 282.793 145.608C281.427 148.04 279.977 150.024 278.441 151.56C276.905 153.096 275.326 153.864 273.705 153.864C272.126 153.864 270.718 153.245 269.481 152.008C268.286 150.771 267.689 148.595 267.689 145.48C267.689 143.731 267.838 141.768 268.137 139.592C268.435 137.373 268.819 135.176 269.289 133C269.758 130.824 270.227 128.883 270.697 127.176C271.166 125.427 271.593 124.147 271.977 123.336C272.275 122.653 272.574 122.205 272.873 121.992C273.171 121.736 273.577 121.608 274.089 121.608C274.686 121.608 275.326 121.864 276.009 122.376C276.691 122.888 277.033 123.741 277.033 124.936C277.033 125.235 276.883 125.939 276.585 127.048C276.329 128.115 275.987 129.437 275.561 131.016C275.177 132.552 274.771 134.216 274.345 136.008C273.918 137.8 273.555 139.592 273.257 141.384C273.001 143.176 272.873 144.819 272.873 146.312C272.873 147.123 272.958 147.784 273.129 148.296C273.299 148.808 273.726 149.064 274.409 149.064C275.006 149.064 275.753 148.467 276.649 147.272C277.587 146.077 278.59 144.499 279.657 142.536C280.766 140.531 281.897 138.312 283.049 135.88C284.243 133.448 285.395 130.952 286.505 128.392C287.657 125.832 288.702 123.4 289.641 121.096C289.982 120.328 290.345 119.859 290.729 119.688C291.113 119.475 291.539 119.368 292.009 119.368C292.777 119.368 293.459 119.688 294.057 120.328C294.697 120.925 295.017 121.715 295.017 122.696C295.017 123.336 294.889 124.445 294.633 126.024C294.419 127.603 294.099 129.459 293.673 131.592C293.289 133.683 292.841 135.901 292.329 138.248C291.859 140.595 291.39 142.92 290.921 145.224C290.451 147.485 290.003 149.555 289.577 151.432C289.193 153.309 288.873 154.824 288.617 155.976C288.403 157.043 288.105 157.725 287.721 158.024C287.379 158.365 286.995 158.536 286.569 158.536ZM308.192 155.528C306.955 155.528 305.846 154.824 304.864 153.416C303.883 152.008 303.392 150.195 303.392 147.976C303.392 145.544 303.712 142.941 304.352 140.168C305.035 137.395 305.867 134.579 306.848 131.72C307.83 128.819 308.79 126.024 309.728 123.336C309.942 122.781 310.24 122.376 310.624 122.12C311.051 121.821 311.691 121.672 312.544 121.672C314.08 121.672 314.848 122.419 314.848 123.912C314.848 124.253 314.678 125.021 314.336 126.216C313.995 127.411 313.547 128.883 312.992 130.632C312.48 132.381 311.947 134.28 311.392 136.328C310.838 138.333 310.347 140.36 309.92 142.408C309.494 144.456 309.195 146.355 309.024 148.104C309.707 147.379 310.475 146.269 311.328 144.776C312.224 143.283 313.184 141.597 314.208 139.72C315.232 137.8 316.299 135.88 317.408 133.96C318.518 131.997 319.627 130.205 320.736 128.584C321.888 126.92 322.998 125.597 324.064 124.616C325.174 123.592 326.198 123.08 327.136 123.08C328.502 123.08 329.654 123.507 330.592 124.36C331.574 125.171 332.32 126.621 332.832 128.712C333.387 130.76 333.664 133.661 333.664 137.416C333.664 139.421 333.856 141.299 334.24 143.048C334.667 144.797 335.328 146.205 336.224 147.272C337.163 148.296 338.358 148.808 339.808 148.808C341.984 148.808 343.926 148.424 345.632 147.656C347.339 146.845 348.811 145.949 350.048 144.968C351.328 143.944 352.395 143.048 353.248 142.28C354.102 141.469 354.763 141.064 355.232 141.064C356.214 141.064 356.704 141.576 356.704 142.6C356.704 143.027 356.384 143.709 355.744 144.648C355.147 145.544 354.294 146.568 353.184 147.72C352.118 148.829 350.88 149.917 349.472 150.984C348.107 152.008 346.635 152.861 345.056 153.544C343.52 154.227 341.963 154.568 340.384 154.568C337.44 154.568 335.03 153.992 333.152 152.84C331.318 151.688 329.952 149.789 329.056 147.144C328.203 144.499 327.776 140.957 327.776 136.52C327.776 134.088 327.627 132.317 327.328 131.208C327.072 130.056 326.582 129.288 325.856 128.904C325.344 129.8 324.683 131.08 323.872 132.744C323.062 134.365 322.123 136.179 321.056 138.184C320.032 140.189 318.944 142.216 317.792 144.264C316.683 146.269 315.552 148.125 314.4 149.832C313.248 151.539 312.139 152.925 311.072 153.992C310.006 155.016 309.046 155.528 308.192 155.528ZM356.631 173.896C353.346 173.896 350.935 173.576 349.399 172.936C347.863 172.296 347.095 171.443 347.095 170.376C347.095 169.693 347.309 169.139 347.735 168.712C348.205 168.285 348.781 168.072 349.463 168.072C350.189 168.072 351.234 168.179 352.599 168.392C353.965 168.648 355.309 168.776 356.631 168.776C361.026 168.776 364.631 167.475 367.447 164.872C370.263 162.269 372.418 158.28 373.911 152.904C375.405 147.485 376.407 140.573 376.919 132.168C375.639 134.771 374.189 137.373 372.567 139.976C370.989 142.536 369.282 144.883 367.447 147.016C365.655 149.107 363.799 150.792 361.879 152.072C359.959 153.352 358.061 153.992 356.183 153.992C354.391 153.992 353.069 153.544 352.215 152.648C351.405 151.752 350.999 150.28 350.999 148.232C350.999 146.397 351.511 144.456 352.535 142.408C353.559 140.317 354.925 138.227 356.631 136.136C358.338 134.045 360.215 132.061 362.263 130.184C364.311 128.264 366.359 126.579 368.407 125.128C370.498 123.635 372.439 122.461 374.231 121.608C376.023 120.755 377.474 120.328 378.583 120.328C379.693 120.328 380.546 120.712 381.143 121.48C381.741 122.248 382.039 123.699 382.039 125.832C382.039 130.824 381.869 135.688 381.527 140.424C381.229 145.117 380.61 149.491 379.671 153.544C378.733 157.597 377.325 161.139 375.447 164.168C373.613 167.24 371.159 169.629 368.087 171.336C365.015 173.043 361.197 173.896 356.631 173.896ZM375.767 125.896C373.634 127.261 371.437 128.797 369.175 130.504C366.914 132.211 364.802 134.024 362.839 135.944C360.919 137.864 359.362 139.848 358.167 141.896C356.973 143.944 356.375 145.992 356.375 148.04C356.375 148.68 356.781 149 357.591 149C358.231 149 359.106 148.509 360.215 147.528C361.367 146.504 362.647 145.16 364.055 143.496C365.463 141.789 366.893 139.933 368.343 137.928C369.837 135.88 371.223 133.811 372.503 131.72C373.783 129.629 374.871 127.688 375.767 125.896Z" fill="#FF6200"/>
<path d="M14 190.863C65.1109 178.52 221.512 152.622 376.737 186.221C379.161 186.746 378.575 189.853 376.109 189.581C283.413 179.39 229.874 175.656 179.739 182.086C177.32 182.397 177.571 185.824 180.01 185.902C207.831 186.803 244.494 189.911 260.529 197.93" stroke="#513E3E" stroke-width="5" stroke-linecap="round"/>
<path d="M16 191.863C67.1109 179.52 223.512 153.622 378.737 187.221C381.161 187.746 380.575 190.853 378.109 190.581C285.413 180.39 231.874 176.656 181.739 183.086C179.32 183.397 179.571 186.824 182.01 186.902C209.831 187.803 246.494 190.911 262.529 198.93" stroke="#FF6200" stroke-width="5" stroke-linecap="round"/>
</g>
<defs>
<clipPath id="clip0_33_2">
<rect width="398" height="216" fill="white"/>
</clipPath>
</defs>
</svg>
