<svg width="398" height="216" viewBox="0 0 398 216" fill="none" xmlns="http://www.w3.org/2000/svg">
<g clip-path="url(#clip0_33_2)">
<path d="M48.16 68C48.16 68.4267 47.9253 68.8533 47.456 69.28C46.9867 69.7067 46.2613 69.9413 45.28 69.984C44.0427 69.984 42.656 69.4933 41.12 68.512C39.6267 67.5733 38.048 66.2933 36.384 64.672C34.72 63.008 33.056 61.152 31.392 59.104C29.728 57.056 28.128 54.944 26.592 52.768C25.056 50.5493 23.6693 48.416 22.432 46.368C21.408 50.7627 20.576 54.4747 19.936 57.504C19.3387 60.5333 18.7627 62.8373 18.208 64.416C17.696 65.952 17.056 66.72 16.288 66.72C15.6053 66.72 14.944 66.3147 14.304 65.504C13.7067 64.6507 13.408 63.0507 13.408 60.704C13.408 59.4667 13.4933 58.208 13.664 56.928C13.8347 55.6053 14.1333 54.048 14.56 52.256C14.9867 50.4213 15.5627 48.1173 16.288 45.344C15.8187 44.96 15.52 44.576 15.392 44.192C15.264 43.808 15.2 43.3813 15.2 42.912C15.2 42.3147 15.3707 41.7173 15.712 41.12C16.0533 40.5227 16.7147 40.0747 17.696 39.776C19.1893 34.784 20.384 30.8373 21.28 27.936C22.176 24.992 22.9653 22.9013 23.648 21.664C24.3733 20.384 25.1413 19.744 25.952 19.744C27.7013 19.744 28.576 20.7893 28.576 22.88C28.576 23.648 28.2133 25.3547 27.488 28C26.7627 30.6027 25.6533 34.6133 24.16 40.032C27.5307 37.6 30.688 35.104 33.632 32.544C36.576 29.984 39.264 27.552 41.696 25.248C44.128 22.9013 46.2613 20.8107 48.096 18.976C49.9307 17.1413 51.424 15.6907 52.576 14.624C53.728 13.5573 54.496 13.024 54.88 13.024C55.6053 13.024 56.2027 13.2587 56.672 13.728C57.184 14.1973 57.44 14.7307 57.44 15.328C57.44 16.0533 57.1413 16.7573 56.544 17.44C55.52 18.6347 54.1547 20.192 52.448 22.112C50.7413 24.032 48.8213 26.1013 46.688 28.32C44.5547 30.496 42.3147 32.6293 39.968 34.72C37.664 36.8107 35.36 38.6667 33.056 40.288C30.752 41.8667 28.5973 42.976 26.592 43.616C27.1893 44.2987 27.7867 45.0027 28.384 45.728C28.9813 46.4533 29.536 47.1573 30.048 47.84C31.584 49.8453 33.3333 51.9787 35.296 54.24C37.3013 56.5013 39.328 58.656 41.376 60.704C43.424 62.7093 45.28 64.3733 46.944 65.696C47.7547 66.4213 48.16 67.1893 48.16 68ZM138.509 38.304C138.509 38.816 137.762 39.392 136.269 40.032C134.818 40.672 132.856 41.3333 130.381 42.016C127.906 42.656 125.133 43.296 122.061 43.936C119.032 44.576 115.917 45.152 112.717 45.664C111.565 49.632 110.434 53.6427 109.325 57.696C108.216 61.7067 107.256 65.4827 106.445 69.024C106.274 69.7067 105.933 70.1973 105.421 70.496C104.952 70.8373 104.418 71.008 103.821 71.008C103.138 71.008 102.562 70.816 102.093 70.432C101.624 70.0907 101.389 69.6213 101.389 69.024C101.389 67.9573 101.602 66.4213 102.029 64.416C102.456 62.4107 103.01 60.0853 103.693 57.44C104.418 54.7947 105.165 51.9787 105.933 48.992C104.056 51.8933 101.986 54.624 99.725 57.184C97.4637 59.744 95.0957 62.0053 92.621 63.968C90.1463 65.9307 87.6077 67.4667 85.005 68.576C82.445 69.6853 79.8637 70.24 77.261 70.24C73.2077 70.24 70.2423 69.1733 68.365 67.04C66.4877 64.9067 65.549 61.7067 65.549 57.44C65.549 55.0507 65.8263 52.6613 66.381 50.272C66.9783 47.84 67.7677 45.536 68.749 43.36C69.773 41.184 70.9037 39.264 72.141 37.6C73.3783 35.8933 74.6583 34.5493 75.981 33.568C77.3463 32.5867 78.6477 32.096 79.885 32.096C82.2743 32.096 84.045 32.7573 85.197 34.08C86.349 35.4027 86.925 37.0453 86.925 39.008C86.925 41.056 86.4557 42.9973 85.517 44.832C84.5783 46.6667 83.3197 48.3307 81.741 49.824C80.1623 51.3173 78.4343 52.5973 76.557 53.664C74.6797 54.688 72.8237 55.392 70.989 55.776C70.9463 56.16 70.925 56.544 70.925 56.928C70.925 59.9573 71.4797 62.048 72.589 63.2C73.741 64.3093 75.5543 64.864 78.029 64.864C80.4183 64.864 82.9357 64.1387 85.581 62.688C88.269 61.2373 90.957 59.1893 93.645 56.544C96.3757 53.8987 98.9783 50.8053 101.453 47.264C99.6183 47.4773 97.9117 47.648 96.333 47.776C94.797 47.8613 93.453 47.904 92.301 47.904C91.1063 47.904 90.2743 47.7333 89.805 47.392C89.3783 47.0507 89.165 46.4747 89.165 45.664C89.165 45.3227 89.3783 44.896 89.805 44.384C90.2743 43.872 90.7863 43.5947 91.341 43.552C93.8157 43.3387 96.1623 43.104 98.381 42.848C100.642 42.592 102.797 42.3147 104.845 42.016C105.954 40.1387 107.021 38.176 108.045 36.128C109.069 34.0373 110.029 31.904 110.925 29.728C111.736 26.8693 112.546 24.3093 113.357 22.048C114.21 19.7867 115.085 18.016 115.981 16.736C116.92 15.4133 117.901 14.752 118.925 14.752C119.394 14.752 119.8 14.9653 120.141 15.392C120.525 15.8187 120.717 16.416 120.717 17.184C120.717 17.7387 120.418 19.1467 119.821 21.408C119.224 23.6267 118.413 26.4213 117.389 29.792C116.408 33.12 115.341 36.7467 114.189 40.672C120.93 39.6053 126.136 38.6453 129.805 37.792C133.474 36.9387 135.8 36.512 136.781 36.512C137.336 36.512 137.762 36.704 138.061 37.088C138.36 37.4293 138.509 37.8347 138.509 38.304ZM71.693 50.976C73.357 50.08 74.957 48.928 76.493 47.52C78.029 46.112 79.2877 44.64 80.269 43.104C81.293 41.568 81.805 40.1387 81.805 38.816C81.805 37.6213 81.2503 37.024 80.141 37.024C79.245 37.024 78.2423 37.7067 77.133 39.072C76.0663 40.3947 75.0423 42.1227 74.061 44.256C73.0797 46.3893 72.2903 48.6293 71.693 50.976ZM140.114 68.64C137.597 68.64 135.613 67.68 134.162 65.76C132.711 63.84 131.986 61.344 131.986 58.272C131.986 57.1627 132.135 55.9893 132.434 54.752C132.775 53.472 133.202 52.32 133.714 51.296C133.415 50.9973 133.181 50.592 133.01 50.08C132.839 49.5253 132.754 48.8427 132.754 48.032C132.754 45.5147 133.181 43.2107 134.034 41.12C134.887 39.0293 136.018 37.216 137.426 35.68C138.834 34.1013 140.391 32.8853 142.098 32.032C143.847 31.1787 145.618 30.752 147.41 30.752C150.354 30.752 152.743 31.8187 154.578 33.952C156.413 36.0427 157.33 39.2427 157.33 43.552C157.33 45.8133 156.989 48.1173 156.306 50.464C155.666 52.8107 154.77 55.072 153.618 57.248C152.509 59.424 151.207 61.3653 149.714 63.072C148.263 64.7787 146.706 66.144 145.042 67.168C143.421 68.1493 141.778 68.64 140.114 68.64ZM137.938 49.12C138.194 49.4613 138.322 49.9093 138.322 50.464C138.322 51.104 138.194 51.744 137.938 52.384C137.725 53.024 137.49 53.8987 137.234 55.008C136.978 56.1173 136.85 57.696 136.85 59.744C136.85 61.792 137.661 62.816 139.282 62.816C141.074 62.816 142.738 62.112 144.274 60.704C145.81 59.2533 147.175 57.3973 148.37 55.136C149.565 52.8747 150.482 50.464 151.122 47.904C151.805 45.3013 152.146 42.848 152.146 40.544C152.146 39.0507 151.869 38.0053 151.314 37.408C150.759 36.768 149.757 36.448 148.306 36.448C146.813 36.448 145.255 36.96 143.634 37.984C142.055 38.9653 140.733 40.3093 139.666 42.016C138.599 43.7227 138.066 45.6427 138.066 47.776C138.066 48.2453 138.023 48.6933 137.938 49.12ZM169.432 45.6C168.28 45.6 167.256 45.344 166.36 44.832C165.506 44.2773 165.08 43.68 165.08 43.04C165.08 42.656 165.741 42.2293 167.064 41.76C168.429 41.248 170.2 40.7573 172.376 40.288C174.552 39.8187 176.92 39.4347 179.48 39.136C182.082 38.8373 184.621 38.688 187.096 38.688C189.229 38.688 190.701 38.9653 191.512 39.52C192.322 40.032 192.728 40.608 192.728 41.248C192.728 41.76 191.981 42.2933 190.488 42.848C189.037 43.36 187.138 43.8293 184.792 44.256C182.488 44.64 179.97 44.96 177.24 45.216C174.552 45.472 171.949 45.6 169.432 45.6ZM22.304 156.128C21.2373 156.128 20.1067 155.808 18.912 155.168C17.7173 154.528 16.608 153.483 15.584 152.032C14.6027 150.581 13.792 148.661 13.152 146.272C12.512 143.883 12.192 140.939 12.192 137.44C12.192 134.667 12.5333 131.851 13.216 128.992C13.9413 126.091 15.0507 123.36 16.544 120.8C18.08 118.197 20.0427 115.957 22.432 114.08C24.864 112.16 27.808 110.837 31.264 110.112C32.7573 109.771 34.4427 109.451 36.32 109.152C38.24 108.811 40.1813 108.512 42.144 108.256C44.1493 107.957 46.0267 107.723 47.776 107.552C49.568 107.381 51.0827 107.296 52.32 107.296C54.3253 107.296 55.7547 107.659 56.608 108.384C57.504 109.067 57.952 109.728 57.952 110.368C57.952 110.795 57.7813 111.2 57.44 111.584C57.0987 111.925 56.4373 112.139 55.456 112.224C55.072 112.267 54.2613 112.373 53.024 112.544C51.7867 112.672 50.2933 112.864 48.544 113.12C46.7947 113.376 44.96 113.653 43.04 113.952C41.1627 114.208 39.328 114.485 37.536 114.784C35.7867 115.04 34.272 115.275 32.992 115.488C29.4507 116.171 26.656 117.344 24.608 119.008C22.56 120.672 21.0667 122.635 20.128 124.896C19.1893 127.157 18.592 129.483 18.336 131.872C20.0427 131.488 21.8987 131.083 23.904 130.656C25.952 130.229 27.9147 129.845 29.792 129.504C31.6693 129.12 33.2907 128.821 34.656 128.608C36.064 128.395 37.0027 128.288 37.472 128.288C38.368 128.288 38.9227 128.48 39.136 128.864C39.392 129.248 39.52 129.739 39.52 130.336C39.52 131.488 37.6427 132.768 33.888 134.176C30.176 135.584 24.9067 136.779 18.08 137.76C18.08 139.211 18.1013 140.704 18.144 142.24C18.2293 143.733 18.3573 145.12 18.528 146.4C18.6987 147.68 18.912 148.704 19.168 149.472C19.424 150.24 19.7653 150.624 20.192 150.624C21.1733 150.624 22.4533 150.325 24.032 149.728C25.6533 149.131 27.3387 148.405 29.088 147.552C30.8373 146.699 32.4373 145.867 33.888 145.056C35.3813 144.245 36.4693 143.605 37.152 143.136C37.9627 142.624 38.8373 142.069 39.776 141.472C40.7147 140.875 41.4187 140.576 41.888 140.576C42.4853 140.576 42.784 140.917 42.784 141.6C42.784 141.984 42.4427 142.731 41.76 143.84C41.12 144.949 40.1813 146.208 38.944 147.616C37.7067 148.981 36.2347 150.325 34.528 151.648C32.864 152.928 30.9867 153.995 28.896 154.848C26.848 155.701 24.6507 156.128 22.304 156.128ZM57.2365 157.216C56.5538 157.216 55.9778 156.939 55.5085 156.384C55.0392 155.829 54.8045 155.061 54.8045 154.08C54.8045 153.355 54.9538 152.16 55.2525 150.496C55.5938 148.789 55.9565 146.805 56.3405 144.544C56.7672 142.283 57.1298 139.936 57.4285 137.504C57.7272 135.029 57.8765 132.661 57.8765 130.4C57.8765 129.291 58.1538 128.48 58.7085 127.968C59.3058 127.413 59.9672 127.136 60.6925 127.136C61.3752 127.136 61.8872 127.563 62.2285 128.416C62.5698 129.269 62.6338 130.976 62.4205 133.536C64.3832 129.184 66.5378 125.685 68.8845 123.04C71.2738 120.352 73.6418 118.432 75.9885 117.28C78.3352 116.085 80.4472 115.488 82.3245 115.488C83.5618 115.488 84.4578 115.744 85.0125 116.256C85.6098 116.725 85.9085 117.259 85.9085 117.856C85.9085 118.667 85.5672 119.307 84.8845 119.776C84.2445 120.203 83.1138 120.715 81.4925 121.312C79.6152 122.037 77.8872 122.891 76.3085 123.872C74.7725 124.811 73.3005 126.048 71.8925 127.584C70.5272 129.12 69.1832 131.083 67.8605 133.472C66.5378 135.819 65.2152 138.72 63.8925 142.176C62.5698 145.632 61.1618 149.792 59.6685 154.656C59.4125 155.595 59.0712 156.256 58.6445 156.64C58.2605 157.024 57.7912 157.216 57.2365 157.216ZM89.661 154.528C88.4237 154.528 87.3143 153.824 86.333 152.416C85.3517 151.008 84.861 149.195 84.861 146.976C84.861 144.544 85.181 141.941 85.821 139.168C86.5037 136.395 87.3357 133.579 88.317 130.72C89.2983 127.819 90.2583 125.024 91.197 122.336C91.4103 121.781 91.709 121.376 92.093 121.12C92.5197 120.821 93.1597 120.672 94.013 120.672C95.549 120.672 96.317 121.419 96.317 122.912C96.317 123.253 96.1463 124.021 95.805 125.216C95.4637 126.411 95.0157 127.883 94.461 129.632C93.949 131.381 93.4157 133.28 92.861 135.328C92.3063 137.333 91.8157 139.36 91.389 141.408C90.9623 143.456 90.6637 145.355 90.493 147.104C91.1757 146.379 91.9437 145.269 92.797 143.776C93.693 142.283 94.653 140.597 95.677 138.72C96.701 136.8 97.7677 134.88 98.877 132.96C99.9863 130.997 101.096 129.205 102.205 127.584C103.357 125.92 104.466 124.597 105.533 123.616C106.642 122.592 107.666 122.08 108.605 122.08C109.97 122.08 111.122 122.507 112.061 123.36C113.042 124.171 113.789 125.621 114.301 127.712C114.856 129.76 115.133 132.661 115.133 136.416C115.133 138.421 115.325 140.299 115.709 142.048C116.136 143.797 116.797 145.205 117.693 146.272C118.632 147.296 119.826 147.808 121.277 147.808C123.453 147.808 125.394 147.424 127.101 146.656C128.808 145.845 130.28 144.949 131.517 143.968C132.797 142.944 133.864 142.048 134.717 141.28C135.57 140.469 136.232 140.064 136.701 140.064C137.682 140.064 138.173 140.576 138.173 141.6C138.173 142.027 137.853 142.709 137.213 143.648C136.616 144.544 135.762 145.568 134.653 146.72C133.586 147.829 132.349 148.917 130.941 149.984C129.576 151.008 128.104 151.861 126.525 152.544C124.989 153.227 123.432 153.568 121.853 153.568C118.909 153.568 116.498 152.992 114.621 151.84C112.786 150.688 111.421 148.789 110.525 146.144C109.672 143.499 109.245 139.957 109.245 135.52C109.245 133.088 109.096 131.317 108.797 130.208C108.541 129.056 108.05 128.288 107.325 127.904C106.813 128.8 106.152 130.08 105.341 131.744C104.53 133.365 103.592 135.179 102.525 137.184C101.501 139.189 100.413 141.216 99.261 143.264C98.1517 145.269 97.021 147.125 95.869 148.832C94.717 150.539 93.6077 151.925 92.541 152.992C91.4743 154.016 90.5143 154.528 89.661 154.528ZM137.46 157.664C135.839 157.664 134.495 156.917 133.428 155.424C132.404 153.888 131.892 151.904 131.892 149.472C131.892 147.211 132.447 144.971 133.556 142.752C134.708 140.533 136.223 138.4 138.1 136.352C139.977 134.304 142.025 132.427 144.244 130.72C146.463 128.971 148.681 127.456 150.9 126.176C153.161 124.896 155.231 123.893 157.108 123.168C158.985 122.443 160.479 122.08 161.588 122.08C162.185 122.08 162.676 122.208 163.06 122.464C163.444 122.677 163.636 123.083 163.636 123.68C163.636 124.064 163.487 124.427 163.188 124.768C163.231 124.768 163.273 124.768 163.316 124.768C164.255 124.768 164.724 125.323 164.724 126.432C164.724 126.816 164.575 127.605 164.276 128.8C163.977 129.952 163.636 131.403 163.252 133.152C162.868 134.901 162.527 136.843 162.228 138.976C161.929 141.067 161.78 143.2 161.78 145.376C161.78 147.211 162.484 148.128 163.892 148.128C165.471 148.128 167.071 147.765 168.692 147.04C170.313 146.315 171.892 145.44 173.428 144.416C174.964 143.349 176.372 142.304 177.652 141.28C178.932 140.213 180.02 139.317 180.916 138.592C181.812 137.867 182.452 137.504 182.836 137.504C183.177 137.504 183.476 137.611 183.732 137.824C183.988 138.037 184.116 138.379 184.116 138.848C184.116 139.275 183.689 140.043 182.836 141.152C181.983 142.261 180.852 143.52 179.444 144.928C178.036 146.336 176.457 147.701 174.708 149.024C172.959 150.347 171.167 151.435 169.332 152.288C167.497 153.141 165.748 153.568 164.084 153.568C162.804 153.568 161.631 153.184 160.564 152.416C159.54 151.605 158.708 150.24 158.068 148.32C157.471 146.4 157.172 143.755 157.172 140.384V138.784C155.081 142.24 152.884 145.397 150.58 148.256C148.319 151.115 146.057 153.397 143.796 155.104C141.577 156.811 139.465 157.664 137.46 157.664ZM160.372 126.688C160.159 126.773 159.86 126.901 159.476 127.072C157.513 127.968 155.465 129.077 153.332 130.4C151.241 131.723 149.193 133.195 147.188 134.816C145.225 136.437 143.455 138.123 141.876 139.872C140.297 141.621 139.039 143.392 138.1 145.184C137.161 146.976 136.692 148.725 136.692 150.432C136.692 150.987 136.799 151.413 137.012 151.712C137.268 152.011 137.695 152.16 138.292 152.16C139.145 152.16 140.255 151.627 141.62 150.56C142.985 149.451 144.479 148 146.1 146.208C147.764 144.416 149.428 142.432 151.092 140.256C152.756 138.08 154.335 135.883 155.828 133.664C157.364 131.445 158.687 129.397 159.796 127.52C159.967 127.221 160.159 126.944 160.372 126.688ZM166.388 116.512C165.193 116.512 164.276 116.192 163.636 115.552C162.996 114.869 162.676 114.059 162.676 113.12C162.676 111.755 162.996 110.624 163.636 109.728C164.276 108.832 165.151 108.384 166.26 108.384C167.284 108.384 168.201 108.747 169.012 109.472C169.865 110.197 170.292 111.051 170.292 112.032C170.292 113.44 169.865 114.549 169.012 115.36C168.159 116.128 167.284 116.512 166.388 116.512ZM150.324 116.896C149.257 116.896 148.447 116.512 147.892 115.744C147.337 114.976 147.06 114.037 147.06 112.928C147.06 111.861 147.337 110.965 147.892 110.24C148.489 109.515 149.3 109.152 150.324 109.152C151.263 109.152 152.116 109.515 152.884 110.24C153.652 110.965 154.036 111.797 154.036 112.736C154.036 114.016 153.631 115.04 152.82 115.808C152.009 116.533 151.177 116.896 150.324 116.896ZM183.082 158.88C182.143 158.88 181.418 158.603 180.906 158.048C180.394 157.536 180.138 156.235 180.138 154.144C180.138 152.224 180.479 149.728 181.161 146.656C181.844 143.541 182.762 140.085 183.914 136.288C185.066 132.491 186.367 128.565 187.818 124.512C189.268 120.416 190.783 116.405 192.362 112.48C193.983 108.512 195.54 104.885 197.034 101.6C197.588 100.405 198.164 99.5733 198.762 99.104C199.359 98.6347 200.063 98.4 200.874 98.4C201.428 98.4 201.898 98.5707 202.282 98.912C202.708 99.2107 202.922 99.7227 202.922 100.448C202.922 100.704 202.644 101.536 202.09 102.944C201.578 104.352 200.852 106.208 199.914 108.512C199.018 110.816 198.015 113.397 196.906 116.256C195.796 119.115 194.666 122.123 193.514 125.28C192.362 128.437 191.274 131.616 190.25 134.816C189.226 137.973 188.351 141.003 187.626 143.904C186.9 146.805 186.41 149.408 186.154 151.712C187.178 150.475 188.351 148.896 189.674 146.976C190.996 145.056 192.404 142.987 193.898 140.768C195.391 138.549 196.906 136.352 198.442 134.176C199.978 132 201.492 130.016 202.986 128.224C204.479 126.432 205.866 125.003 207.146 123.936C208.468 122.827 209.62 122.272 210.602 122.272C212.223 122.272 213.524 122.784 214.506 123.808C215.53 124.789 216.042 126.411 216.042 128.672C216.042 129.952 215.786 131.488 215.274 133.28C214.804 135.072 214.25 136.949 213.61 138.912C212.97 140.875 212.394 142.752 211.882 144.544C211.412 146.336 211.178 147.872 211.178 149.152C211.178 150.901 211.839 151.776 213.162 151.776C215.21 151.776 217.258 151.328 219.306 150.432C221.396 149.536 223.38 148.427 225.258 147.104C227.135 145.739 228.863 144.373 230.442 143.008C232.02 141.6 233.364 140.405 234.474 139.424C235.668 138.357 236.671 137.824 237.482 137.824C238.506 137.824 239.018 138.357 239.018 139.424C239.018 139.723 238.954 140.064 238.826 140.448C238.698 140.832 238.356 141.323 237.802 141.92C237.119 142.688 236.138 143.691 234.858 144.928C233.62 146.165 232.17 147.488 230.506 148.896C228.884 150.304 227.114 151.627 225.194 152.864C223.316 154.101 221.375 155.125 219.37 155.936C217.407 156.704 215.487 157.088 213.61 157.088C211.05 157.088 209.066 156.363 207.658 154.912C206.292 153.419 205.61 151.371 205.61 148.768C205.61 147.147 205.866 145.184 206.378 142.88C206.89 140.576 207.53 138.144 208.298 135.584C209.108 132.981 209.919 130.443 210.729 127.968C209.364 128.907 207.871 130.315 206.25 132.192C204.671 134.027 203.007 136.117 201.258 138.464C199.508 140.768 197.759 143.115 196.01 145.504C194.303 147.893 192.639 150.112 191.018 152.16C189.439 154.165 187.967 155.787 186.602 157.024C185.236 158.261 184.063 158.88 183.082 158.88ZM237.237 157.216C236.554 157.216 235.978 156.939 235.509 156.384C235.039 155.829 234.805 155.061 234.805 154.08C234.805 153.355 234.954 152.16 235.253 150.496C235.594 148.789 235.957 146.805 236.341 144.544C236.767 142.283 237.13 139.936 237.429 137.504C237.727 135.029 237.877 132.661 237.877 130.4C237.877 129.291 238.154 128.48 238.709 127.968C239.306 127.413 239.967 127.136 240.693 127.136C241.375 127.136 241.887 127.563 242.229 128.416C242.57 129.269 242.634 130.976 242.421 133.536C244.383 129.184 246.538 125.685 248.885 123.04C251.274 120.352 253.642 118.432 255.989 117.28C258.335 116.085 260.447 115.488 262.325 115.488C263.562 115.488 264.458 115.744 265.013 116.256C265.61 116.725 265.909 117.259 265.909 117.856C265.909 118.667 265.567 119.307 264.885 119.776C264.245 120.203 263.114 120.715 261.493 121.312C259.615 122.037 257.887 122.891 256.309 123.872C254.773 124.811 253.301 126.048 251.893 127.584C250.527 129.12 249.183 131.083 247.861 133.472C246.538 135.819 245.215 138.72 243.893 142.176C242.57 145.632 241.162 149.792 239.669 154.656C239.413 155.595 239.071 156.256 238.645 156.64C238.261 157.024 237.791 157.216 237.237 157.216ZM284.1 157.536C283.375 157.536 282.756 157.216 282.244 156.576C281.732 155.936 281.476 154.997 281.476 153.76C281.476 152.309 281.689 150.24 282.116 147.552C282.585 144.864 283.268 141.301 284.164 136.864C283.012 139.595 281.732 142.176 280.324 144.608C278.959 147.04 277.508 149.024 275.972 150.56C274.436 152.096 272.857 152.864 271.236 152.864C269.657 152.864 268.249 152.245 267.012 151.008C265.817 149.771 265.22 147.595 265.22 144.48C265.22 142.731 265.369 140.768 265.668 138.592C265.967 136.373 266.351 134.176 266.82 132C267.289 129.824 267.759 127.883 268.228 126.176C268.697 124.427 269.124 123.147 269.508 122.336C269.807 121.653 270.105 121.205 270.404 120.992C270.703 120.736 271.108 120.608 271.62 120.608C272.217 120.608 272.857 120.864 273.54 121.376C274.223 121.888 274.564 122.741 274.564 123.936C274.564 124.235 274.415 124.939 274.116 126.048C273.86 127.115 273.519 128.437 273.092 130.016C272.708 131.552 272.303 133.216 271.876 135.008C271.449 136.8 271.087 138.592 270.788 140.384C270.532 142.176 270.404 143.819 270.404 145.312C270.404 146.123 270.489 146.784 270.66 147.296C270.831 147.808 271.257 148.064 271.94 148.064C272.537 148.064 273.284 147.467 274.18 146.272C275.119 145.077 276.121 143.499 277.188 141.536C278.297 139.531 279.428 137.312 280.58 134.88C281.775 132.448 282.927 129.952 284.036 127.392C285.188 124.832 286.233 122.4 287.172 120.096C287.513 119.328 287.876 118.859 288.26 118.688C288.644 118.475 289.071 118.368 289.54 118.368C290.308 118.368 290.991 118.688 291.588 119.328C292.228 119.925 292.548 120.715 292.548 121.696C292.548 122.336 292.42 123.445 292.164 125.024C291.951 126.603 291.631 128.459 291.204 130.592C290.82 132.683 290.372 134.901 289.86 137.248C289.391 139.595 288.921 141.92 288.452 144.224C287.983 146.485 287.535 148.555 287.108 150.432C286.724 152.309 286.404 153.824 286.148 154.976C285.935 156.043 285.636 156.725 285.252 157.024C284.911 157.365 284.527 157.536 284.1 157.536ZM305.724 154.528C304.486 154.528 303.377 153.824 302.396 152.416C301.414 151.008 300.924 149.195 300.924 146.976C300.924 144.544 301.244 141.941 301.884 139.168C302.566 136.395 303.398 133.579 304.38 130.72C305.361 127.819 306.321 125.024 307.26 122.336C307.473 121.781 307.772 121.376 308.156 121.12C308.582 120.821 309.222 120.672 310.076 120.672C311.612 120.672 312.38 121.419 312.38 122.912C312.38 123.253 312.209 124.021 311.868 125.216C311.526 126.411 311.078 127.883 310.524 129.632C310.012 131.381 309.478 133.28 308.924 135.328C308.369 137.333 307.878 139.36 307.452 141.408C307.025 143.456 306.726 145.355 306.556 147.104C307.238 146.379 308.006 145.269 308.86 143.776C309.756 142.283 310.716 140.597 311.74 138.72C312.764 136.8 313.83 134.88 314.94 132.96C316.049 130.997 317.158 129.205 318.268 127.584C319.42 125.92 320.529 124.597 321.596 123.616C322.705 122.592 323.729 122.08 324.668 122.08C326.033 122.08 327.185 122.507 328.124 123.36C329.105 124.171 329.852 125.621 330.364 127.712C330.918 129.76 331.196 132.661 331.196 136.416C331.196 138.421 331.388 140.299 331.772 142.048C332.198 143.797 332.86 145.205 333.756 146.272C334.694 147.296 335.889 147.808 337.34 147.808C339.516 147.808 341.457 147.424 343.164 146.656C344.87 145.845 346.342 144.949 347.58 143.968C348.86 142.944 349.926 142.048 350.78 141.28C351.633 140.469 352.294 140.064 352.764 140.064C353.745 140.064 354.236 140.576 354.236 141.6C354.236 142.027 353.916 142.709 353.276 143.648C352.678 144.544 351.825 145.568 350.716 146.72C349.649 147.829 348.412 148.917 347.004 149.984C345.638 151.008 344.166 151.861 342.588 152.544C341.052 153.227 339.494 153.568 337.916 153.568C334.972 153.568 332.561 152.992 330.684 151.84C328.849 150.688 327.484 148.789 326.588 146.144C325.734 143.499 325.308 139.957 325.308 135.52C325.308 133.088 325.158 131.317 324.86 130.208C324.604 129.056 324.113 128.288 323.388 127.904C322.876 128.8 322.214 130.08 321.404 131.744C320.593 133.365 319.654 135.179 318.588 137.184C317.564 139.189 316.476 141.216 315.324 143.264C314.214 145.269 313.084 147.125 311.932 148.832C310.78 150.539 309.67 151.925 308.604 152.992C307.537 154.016 306.577 154.528 305.724 154.528ZM354.163 172.896C350.877 172.896 348.467 172.576 346.931 171.936C345.395 171.296 344.627 170.443 344.627 169.376C344.627 168.693 344.84 168.139 345.267 167.712C345.736 167.285 346.312 167.072 346.995 167.072C347.72 167.072 348.765 167.179 350.131 167.392C351.496 167.648 352.84 167.776 354.163 167.776C358.557 167.776 362.163 166.475 364.979 163.872C367.795 161.269 369.949 157.28 371.443 151.904C372.936 146.485 373.939 139.573 374.451 131.168C373.171 133.771 371.72 136.373 370.099 138.976C368.52 141.536 366.813 143.883 364.979 146.016C363.187 148.107 361.331 149.792 359.411 151.072C357.491 152.352 355.592 152.992 353.715 152.992C351.923 152.992 350.6 152.544 349.747 151.648C348.936 150.752 348.531 149.28 348.531 147.232C348.531 145.397 349.043 143.456 350.067 141.408C351.091 139.317 352.456 137.227 354.163 135.136C355.869 133.045 357.747 131.061 359.795 129.184C361.843 127.264 363.891 125.579 365.939 124.128C368.029 122.635 369.971 121.461 371.763 120.608C373.555 119.755 375.005 119.328 376.115 119.328C377.224 119.328 378.077 119.712 378.675 120.48C379.272 121.248 379.571 122.699 379.571 124.832C379.571 129.824 379.4 134.688 379.059 139.424C378.76 144.117 378.141 148.491 377.203 152.544C376.264 156.597 374.856 160.139 372.979 163.168C371.144 166.24 368.691 168.629 365.619 170.336C362.547 172.043 358.728 172.896 354.163 172.896ZM373.299 124.896C371.165 126.261 368.968 127.797 366.707 129.504C364.445 131.211 362.333 133.024 360.371 134.944C358.451 136.864 356.893 138.848 355.699 140.896C354.504 142.944 353.907 144.992 353.907 147.04C353.907 147.68 354.312 148 355.123 148C355.763 148 356.637 147.509 357.747 146.528C358.899 145.504 360.179 144.16 361.587 142.496C362.995 140.789 364.424 138.933 365.875 136.928C367.368 134.88 368.755 132.811 370.035 130.72C371.315 128.629 372.403 126.688 373.299 124.896Z" fill="#23170C"/>
<path d="M50.16 69C50.16 69.4267 49.9253 69.8533 49.456 70.28C48.9867 70.7067 48.2613 70.9413 47.28 70.984C46.0427 70.984 44.656 70.4933 43.12 69.512C41.6267 68.5733 40.048 67.2933 38.384 65.672C36.72 64.008 35.056 62.152 33.392 60.104C31.728 58.056 30.128 55.944 28.592 53.768C27.056 51.5493 25.6693 49.416 24.432 47.368C23.408 51.7627 22.576 55.4747 21.936 58.504C21.3387 61.5333 20.7627 63.8373 20.208 65.416C19.696 66.952 19.056 67.72 18.288 67.72C17.6053 67.72 16.944 67.3147 16.304 66.504C15.7067 65.6507 15.408 64.0507 15.408 61.704C15.408 60.4667 15.4933 59.208 15.664 57.928C15.8347 56.6053 16.1333 55.048 16.56 53.256C16.9867 51.4213 17.5627 49.1173 18.288 46.344C17.8187 45.96 17.52 45.576 17.392 45.192C17.264 44.808 17.2 44.3813 17.2 43.912C17.2 43.3147 17.3707 42.7173 17.712 42.12C18.0533 41.5227 18.7147 41.0747 19.696 40.776C21.1893 35.784 22.384 31.8373 23.28 28.936C24.176 25.992 24.9653 23.9013 25.648 22.664C26.3733 21.384 27.1413 20.744 27.952 20.744C29.7013 20.744 30.576 21.7893 30.576 23.88C30.576 24.648 30.2133 26.3547 29.488 29C28.7627 31.6027 27.6533 35.6133 26.16 41.032C29.5307 38.6 32.688 36.104 35.632 33.544C38.576 30.984 41.264 28.552 43.696 26.248C46.128 23.9013 48.2613 21.8107 50.096 19.976C51.9307 18.1413 53.424 16.6907 54.576 15.624C55.728 14.5573 56.496 14.024 56.88 14.024C57.6053 14.024 58.2027 14.2587 58.672 14.728C59.184 15.1973 59.44 15.7307 59.44 16.328C59.44 17.0533 59.1413 17.7573 58.544 18.44C57.52 19.6347 56.1547 21.192 54.448 23.112C52.7413 25.032 50.8213 27.1013 48.688 29.32C46.5547 31.496 44.3147 33.6293 41.968 35.72C39.664 37.8107 37.36 39.6667 35.056 41.288C32.752 42.8667 30.5973 43.976 28.592 44.616C29.1893 45.2987 29.7867 46.0027 30.384 46.728C30.9813 47.4533 31.536 48.1573 32.048 48.84C33.584 50.8453 35.3333 52.9787 37.296 55.24C39.3013 57.5013 41.328 59.656 43.376 61.704C45.424 63.7093 47.28 65.3733 48.944 66.696C49.7547 67.4213 50.16 68.1893 50.16 69ZM140.509 39.304C140.509 39.816 139.762 40.392 138.269 41.032C136.818 41.672 134.856 42.3333 132.381 43.016C129.906 43.656 127.133 44.296 124.061 44.936C121.032 45.576 117.917 46.152 114.717 46.664C113.565 50.632 112.434 54.6427 111.325 58.696C110.216 62.7067 109.256 66.4827 108.445 70.024C108.274 70.7067 107.933 71.1973 107.421 71.496C106.952 71.8373 106.418 72.008 105.821 72.008C105.138 72.008 104.562 71.816 104.093 71.432C103.624 71.0907 103.389 70.6213 103.389 70.024C103.389 68.9573 103.602 67.4213 104.029 65.416C104.456 63.4107 105.01 61.0853 105.693 58.44C106.418 55.7947 107.165 52.9787 107.933 49.992C106.056 52.8933 103.986 55.624 101.725 58.184C99.4637 60.744 97.0957 63.0053 94.621 64.968C92.1463 66.9307 89.6077 68.4667 87.005 69.576C84.445 70.6853 81.8637 71.24 79.261 71.24C75.2077 71.24 72.2423 70.1733 70.365 68.04C68.4877 65.9067 67.549 62.7067 67.549 58.44C67.549 56.0507 67.8263 53.6613 68.381 51.272C68.9783 48.84 69.7677 46.536 70.749 44.36C71.773 42.184 72.9037 40.264 74.141 38.6C75.3783 36.8933 76.6583 35.5493 77.981 34.568C79.3463 33.5867 80.6477 33.096 81.885 33.096C84.2743 33.096 86.045 33.7573 87.197 35.08C88.349 36.4027 88.925 38.0453 88.925 40.008C88.925 42.056 88.4557 43.9973 87.517 45.832C86.5783 47.6667 85.3197 49.3307 83.741 50.824C82.1623 52.3173 80.4343 53.5973 78.557 54.664C76.6797 55.688 74.8237 56.392 72.989 56.776C72.9463 57.16 72.925 57.544 72.925 57.928C72.925 60.9573 73.4797 63.048 74.589 64.2C75.741 65.3093 77.5543 65.864 80.029 65.864C82.4183 65.864 84.9357 65.1387 87.581 63.688C90.269 62.2373 92.957 60.1893 95.645 57.544C98.3757 54.8987 100.978 51.8053 103.453 48.264C101.618 48.4773 99.9117 48.648 98.333 48.776C96.797 48.8613 95.453 48.904 94.301 48.904C93.1063 48.904 92.2743 48.7333 91.805 48.392C91.3783 48.0507 91.165 47.4747 91.165 46.664C91.165 46.3227 91.3783 45.896 91.805 45.384C92.2743 44.872 92.7863 44.5947 93.341 44.552C95.8157 44.3387 98.1623 44.104 100.381 43.848C102.642 43.592 104.797 43.3147 106.845 43.016C107.954 41.1387 109.021 39.176 110.045 37.128C111.069 35.0373 112.029 32.904 112.925 30.728C113.736 27.8693 114.546 25.3093 115.357 23.048C116.21 20.7867 117.085 19.016 117.981 17.736C118.92 16.4133 119.901 15.752 120.925 15.752C121.394 15.752 121.8 15.9653 122.141 16.392C122.525 16.8187 122.717 17.416 122.717 18.184C122.717 18.7387 122.418 20.1467 121.821 22.408C121.224 24.6267 120.413 27.4213 119.389 30.792C118.408 34.12 117.341 37.7467 116.189 41.672C122.93 40.6053 128.136 39.6453 131.805 38.792C135.474 37.9387 137.8 37.512 138.781 37.512C139.336 37.512 139.762 37.704 140.061 38.088C140.36 38.4293 140.509 38.8347 140.509 39.304ZM73.693 51.976C75.357 51.08 76.957 49.928 78.493 48.52C80.029 47.112 81.2877 45.64 82.269 44.104C83.293 42.568 83.805 41.1387 83.805 39.816C83.805 38.6213 83.2503 38.024 82.141 38.024C81.245 38.024 80.2423 38.7067 79.133 40.072C78.0663 41.3947 77.0423 43.1227 76.061 45.256C75.0797 47.3893 74.2903 49.6293 73.693 51.976ZM142.114 69.64C139.597 69.64 137.613 68.68 136.162 66.76C134.711 64.84 133.986 62.344 133.986 59.272C133.986 58.1627 134.135 56.9893 134.434 55.752C134.775 54.472 135.202 53.32 135.714 52.296C135.415 51.9973 135.181 51.592 135.01 51.08C134.839 50.5253 134.754 49.8427 134.754 49.032C134.754 46.5147 135.181 44.2107 136.034 42.12C136.887 40.0293 138.018 38.216 139.426 36.68C140.834 35.1013 142.391 33.8853 144.098 33.032C145.847 32.1787 147.618 31.752 149.41 31.752C152.354 31.752 154.743 32.8187 156.578 34.952C158.413 37.0427 159.33 40.2427 159.33 44.552C159.33 46.8133 158.989 49.1173 158.306 51.464C157.666 53.8107 156.77 56.072 155.618 58.248C154.509 60.424 153.207 62.3653 151.714 64.072C150.263 65.7787 148.706 67.144 147.042 68.168C145.421 69.1493 143.778 69.64 142.114 69.64ZM139.938 50.12C140.194 50.4613 140.322 50.9093 140.322 51.464C140.322 52.104 140.194 52.744 139.938 53.384C139.725 54.024 139.49 54.8987 139.234 56.008C138.978 57.1173 138.85 58.696 138.85 60.744C138.85 62.792 139.661 63.816 141.282 63.816C143.074 63.816 144.738 63.112 146.274 61.704C147.81 60.2533 149.175 58.3973 150.37 56.136C151.565 53.8747 152.482 51.464 153.122 48.904C153.805 46.3013 154.146 43.848 154.146 41.544C154.146 40.0507 153.869 39.0053 153.314 38.408C152.759 37.768 151.757 37.448 150.306 37.448C148.813 37.448 147.255 37.96 145.634 38.984C144.055 39.9653 142.733 41.3093 141.666 43.016C140.599 44.7227 140.066 46.6427 140.066 48.776C140.066 49.2453 140.023 49.6933 139.938 50.12ZM171.432 46.6C170.28 46.6 169.256 46.344 168.36 45.832C167.506 45.2773 167.08 44.68 167.08 44.04C167.08 43.656 167.741 43.2293 169.064 42.76C170.429 42.248 172.2 41.7573 174.376 41.288C176.552 40.8187 178.92 40.4347 181.48 40.136C184.082 39.8373 186.621 39.688 189.096 39.688C191.229 39.688 192.701 39.9653 193.512 40.52C194.322 41.032 194.728 41.608 194.728 42.248C194.728 42.76 193.981 43.2933 192.488 43.848C191.037 44.36 189.138 44.8293 186.792 45.256C184.488 45.64 181.97 45.96 179.24 46.216C176.552 46.472 173.949 46.6 171.432 46.6ZM24.304 157.128C23.2373 157.128 22.1067 156.808 20.912 156.168C19.7173 155.528 18.608 154.483 17.584 153.032C16.6027 151.581 15.792 149.661 15.152 147.272C14.512 144.883 14.192 141.939 14.192 138.44C14.192 135.667 14.5333 132.851 15.216 129.992C15.9413 127.091 17.0507 124.36 18.544 121.8C20.08 119.197 22.0427 116.957 24.432 115.08C26.864 113.16 29.808 111.837 33.264 111.112C34.7573 110.771 36.4427 110.451 38.32 110.152C40.24 109.811 42.1813 109.512 44.144 109.256C46.1493 108.957 48.0267 108.723 49.776 108.552C51.568 108.381 53.0827 108.296 54.32 108.296C56.3253 108.296 57.7547 108.659 58.608 109.384C59.504 110.067 59.952 110.728 59.952 111.368C59.952 111.795 59.7813 112.2 59.44 112.584C59.0987 112.925 58.4373 113.139 57.456 113.224C57.072 113.267 56.2613 113.373 55.024 113.544C53.7867 113.672 52.2933 113.864 50.544 114.12C48.7947 114.376 46.96 114.653 45.04 114.952C43.1627 115.208 41.328 115.485 39.536 115.784C37.7867 116.04 36.272 116.275 34.992 116.488C31.4507 117.171 28.656 118.344 26.608 120.008C24.56 121.672 23.0667 123.635 22.128 125.896C21.1893 128.157 20.592 130.483 20.336 132.872C22.0427 132.488 23.8987 132.083 25.904 131.656C27.952 131.229 29.9147 130.845 31.792 130.504C33.6693 130.12 35.2907 129.821 36.656 129.608C38.064 129.395 39.0027 129.288 39.472 129.288C40.368 129.288 40.9227 129.48 41.136 129.864C41.392 130.248 41.52 130.739 41.52 131.336C41.52 132.488 39.6427 133.768 35.888 135.176C32.176 136.584 26.9067 137.779 20.08 138.76C20.08 140.211 20.1013 141.704 20.144 143.24C20.2293 144.733 20.3573 146.12 20.528 147.4C20.6987 148.68 20.912 149.704 21.168 150.472C21.424 151.24 21.7653 151.624 22.192 151.624C23.1733 151.624 24.4533 151.325 26.032 150.728C27.6533 150.131 29.3387 149.405 31.088 148.552C32.8373 147.699 34.4373 146.867 35.888 146.056C37.3813 145.245 38.4693 144.605 39.152 144.136C39.9627 143.624 40.8373 143.069 41.776 142.472C42.7147 141.875 43.4187 141.576 43.888 141.576C44.4853 141.576 44.784 141.917 44.784 142.6C44.784 142.984 44.4427 143.731 43.76 144.84C43.12 145.949 42.1813 147.208 40.944 148.616C39.7067 149.981 38.2347 151.325 36.528 152.648C34.864 153.928 32.9867 154.995 30.896 155.848C28.848 156.701 26.6507 157.128 24.304 157.128ZM59.2365 158.216C58.5538 158.216 57.9778 157.939 57.5085 157.384C57.0392 156.829 56.8045 156.061 56.8045 155.08C56.8045 154.355 56.9538 153.16 57.2525 151.496C57.5938 149.789 57.9565 147.805 58.3405 145.544C58.7672 143.283 59.1298 140.936 59.4285 138.504C59.7272 136.029 59.8765 133.661 59.8765 131.4C59.8765 130.291 60.1538 129.48 60.7085 128.968C61.3058 128.413 61.9672 128.136 62.6925 128.136C63.3752 128.136 63.8872 128.563 64.2285 129.416C64.5698 130.269 64.6338 131.976 64.4205 134.536C66.3832 130.184 68.5378 126.685 70.8845 124.04C73.2738 121.352 75.6418 119.432 77.9885 118.28C80.3352 117.085 82.4472 116.488 84.3245 116.488C85.5618 116.488 86.4578 116.744 87.0125 117.256C87.6098 117.725 87.9085 118.259 87.9085 118.856C87.9085 119.667 87.5672 120.307 86.8845 120.776C86.2445 121.203 85.1138 121.715 83.4925 122.312C81.6152 123.037 79.8872 123.891 78.3085 124.872C76.7725 125.811 75.3005 127.048 73.8925 128.584C72.5272 130.12 71.1832 132.083 69.8605 134.472C68.5378 136.819 67.2152 139.72 65.8925 143.176C64.5698 146.632 63.1618 150.792 61.6685 155.656C61.4125 156.595 61.0712 157.256 60.6445 157.64C60.2605 158.024 59.7912 158.216 59.2365 158.216ZM91.661 155.528C90.4237 155.528 89.3143 154.824 88.333 153.416C87.3517 152.008 86.861 150.195 86.861 147.976C86.861 145.544 87.181 142.941 87.821 140.168C88.5037 137.395 89.3357 134.579 90.317 131.72C91.2983 128.819 92.2583 126.024 93.197 123.336C93.4103 122.781 93.709 122.376 94.093 122.12C94.5197 121.821 95.1597 121.672 96.013 121.672C97.549 121.672 98.317 122.419 98.317 123.912C98.317 124.253 98.1463 125.021 97.805 126.216C97.4637 127.411 97.0157 128.883 96.461 130.632C95.949 132.381 95.4157 134.28 94.861 136.328C94.3063 138.333 93.8157 140.36 93.389 142.408C92.9623 144.456 92.6637 146.355 92.493 148.104C93.1757 147.379 93.9437 146.269 94.797 144.776C95.693 143.283 96.653 141.597 97.677 139.72C98.701 137.8 99.7677 135.88 100.877 133.96C101.986 131.997 103.096 130.205 104.205 128.584C105.357 126.92 106.466 125.597 107.533 124.616C108.642 123.592 109.666 123.08 110.605 123.08C111.97 123.08 113.122 123.507 114.061 124.36C115.042 125.171 115.789 126.621 116.301 128.712C116.856 130.76 117.133 133.661 117.133 137.416C117.133 139.421 117.325 141.299 117.709 143.048C118.136 144.797 118.797 146.205 119.693 147.272C120.632 148.296 121.826 148.808 123.277 148.808C125.453 148.808 127.394 148.424 129.101 147.656C130.808 146.845 132.28 145.949 133.517 144.968C134.797 143.944 135.864 143.048 136.717 142.28C137.57 141.469 138.232 141.064 138.701 141.064C139.682 141.064 140.173 141.576 140.173 142.6C140.173 143.027 139.853 143.709 139.213 144.648C138.616 145.544 137.762 146.568 136.653 147.72C135.586 148.829 134.349 149.917 132.941 150.984C131.576 152.008 130.104 152.861 128.525 153.544C126.989 154.227 125.432 154.568 123.853 154.568C120.909 154.568 118.498 153.992 116.621 152.84C114.786 151.688 113.421 149.789 112.525 147.144C111.672 144.499 111.245 140.957 111.245 136.52C111.245 134.088 111.096 132.317 110.797 131.208C110.541 130.056 110.05 129.288 109.325 128.904C108.813 129.8 108.152 131.08 107.341 132.744C106.53 134.365 105.592 136.179 104.525 138.184C103.501 140.189 102.413 142.216 101.261 144.264C100.152 146.269 99.021 148.125 97.869 149.832C96.717 151.539 95.6077 152.925 94.541 153.992C93.4743 155.016 92.5143 155.528 91.661 155.528ZM139.46 158.664C137.839 158.664 136.495 157.917 135.428 156.424C134.404 154.888 133.892 152.904 133.892 150.472C133.892 148.211 134.447 145.971 135.556 143.752C136.708 141.533 138.223 139.4 140.1 137.352C141.977 135.304 144.025 133.427 146.244 131.72C148.463 129.971 150.681 128.456 152.9 127.176C155.161 125.896 157.231 124.893 159.108 124.168C160.985 123.443 162.479 123.08 163.588 123.08C164.185 123.08 164.676 123.208 165.06 123.464C165.444 123.677 165.636 124.083 165.636 124.68C165.636 125.064 165.487 125.427 165.188 125.768C165.231 125.768 165.273 125.768 165.316 125.768C166.255 125.768 166.724 126.323 166.724 127.432C166.724 127.816 166.575 128.605 166.276 129.8C165.977 130.952 165.636 132.403 165.252 134.152C164.868 135.901 164.527 137.843 164.228 139.976C163.929 142.067 163.78 144.2 163.78 146.376C163.78 148.211 164.484 149.128 165.892 149.128C167.471 149.128 169.071 148.765 170.692 148.04C172.313 147.315 173.892 146.44 175.428 145.416C176.964 144.349 178.372 143.304 179.652 142.28C180.932 141.213 182.02 140.317 182.916 139.592C183.812 138.867 184.452 138.504 184.836 138.504C185.177 138.504 185.476 138.611 185.732 138.824C185.988 139.037 186.116 139.379 186.116 139.848C186.116 140.275 185.689 141.043 184.836 142.152C183.983 143.261 182.852 144.52 181.444 145.928C180.036 147.336 178.457 148.701 176.708 150.024C174.959 151.347 173.167 152.435 171.332 153.288C169.497 154.141 167.748 154.568 166.084 154.568C164.804 154.568 163.631 154.184 162.564 153.416C161.54 152.605 160.708 151.24 160.068 149.32C159.471 147.4 159.172 144.755 159.172 141.384V139.784C157.081 143.24 154.884 146.397 152.58 149.256C150.319 152.115 148.057 154.397 145.796 156.104C143.577 157.811 141.465 158.664 139.46 158.664ZM162.372 127.688C162.159 127.773 161.86 127.901 161.476 128.072C159.513 128.968 157.465 130.077 155.332 131.4C153.241 132.723 151.193 134.195 149.188 135.816C147.225 137.437 145.455 139.123 143.876 140.872C142.297 142.621 141.039 144.392 140.1 146.184C139.161 147.976 138.692 149.725 138.692 151.432C138.692 151.987 138.799 152.413 139.012 152.712C139.268 153.011 139.695 153.16 140.292 153.16C141.145 153.16 142.255 152.627 143.62 151.56C144.985 150.451 146.479 149 148.1 147.208C149.764 145.416 151.428 143.432 153.092 141.256C154.756 139.08 156.335 136.883 157.828 134.664C159.364 132.445 160.687 130.397 161.796 128.52C161.967 128.221 162.159 127.944 162.372 127.688ZM168.388 117.512C167.193 117.512 166.276 117.192 165.636 116.552C164.996 115.869 164.676 115.059 164.676 114.12C164.676 112.755 164.996 111.624 165.636 110.728C166.276 109.832 167.151 109.384 168.26 109.384C169.284 109.384 170.201 109.747 171.012 110.472C171.865 111.197 172.292 112.051 172.292 113.032C172.292 114.44 171.865 115.549 171.012 116.36C170.159 117.128 169.284 117.512 168.388 117.512ZM152.324 117.896C151.257 117.896 150.447 117.512 149.892 116.744C149.337 115.976 149.06 115.037 149.06 113.928C149.06 112.861 149.337 111.965 149.892 111.24C150.489 110.515 151.3 110.152 152.324 110.152C153.263 110.152 154.116 110.515 154.884 111.24C155.652 111.965 156.036 112.797 156.036 113.736C156.036 115.016 155.631 116.04 154.82 116.808C154.009 117.533 153.177 117.896 152.324 117.896ZM185.082 159.88C184.143 159.88 183.418 159.603 182.906 159.048C182.394 158.536 182.138 157.235 182.138 155.144C182.138 153.224 182.479 150.728 183.161 147.656C183.844 144.541 184.762 141.085 185.914 137.288C187.066 133.491 188.367 129.565 189.818 125.512C191.268 121.416 192.783 117.405 194.362 113.48C195.983 109.512 197.54 105.885 199.034 102.6C199.588 101.405 200.164 100.573 200.762 100.104C201.359 99.6347 202.063 99.4 202.874 99.4C203.428 99.4 203.898 99.5707 204.282 99.912C204.708 100.211 204.922 100.723 204.922 101.448C204.922 101.704 204.644 102.536 204.09 103.944C203.578 105.352 202.852 107.208 201.914 109.512C201.018 111.816 200.015 114.397 198.906 117.256C197.796 120.115 196.666 123.123 195.514 126.28C194.362 129.437 193.274 132.616 192.25 135.816C191.226 138.973 190.351 142.003 189.626 144.904C188.9 147.805 188.41 150.408 188.154 152.712C189.178 151.475 190.351 149.896 191.674 147.976C192.996 146.056 194.404 143.987 195.898 141.768C197.391 139.549 198.906 137.352 200.442 135.176C201.978 133 203.492 131.016 204.986 129.224C206.479 127.432 207.866 126.003 209.146 124.936C210.468 123.827 211.62 123.272 212.602 123.272C214.223 123.272 215.524 123.784 216.506 124.808C217.53 125.789 218.042 127.411 218.042 129.672C218.042 130.952 217.786 132.488 217.274 134.28C216.804 136.072 216.25 137.949 215.61 139.912C214.97 141.875 214.394 143.752 213.882 145.544C213.412 147.336 213.178 148.872 213.178 150.152C213.178 151.901 213.839 152.776 215.162 152.776C217.21 152.776 219.258 152.328 221.306 151.432C223.396 150.536 225.38 149.427 227.258 148.104C229.135 146.739 230.863 145.373 232.442 144.008C234.02 142.6 235.364 141.405 236.474 140.424C237.668 139.357 238.671 138.824 239.482 138.824C240.506 138.824 241.018 139.357 241.018 140.424C241.018 140.723 240.954 141.064 240.826 141.448C240.698 141.832 240.356 142.323 239.802 142.92C239.119 143.688 238.138 144.691 236.858 145.928C235.62 147.165 234.17 148.488 232.506 149.896C230.884 151.304 229.114 152.627 227.194 153.864C225.316 155.101 223.375 156.125 221.37 156.936C219.407 157.704 217.487 158.088 215.61 158.088C213.05 158.088 211.066 157.363 209.658 155.912C208.292 154.419 207.61 152.371 207.61 149.768C207.61 148.147 207.866 146.184 208.378 143.88C208.89 141.576 209.53 139.144 210.298 136.584C211.108 133.981 211.919 131.443 212.729 128.968C211.364 129.907 209.871 131.315 208.25 133.192C206.671 135.027 205.007 137.117 203.258 139.464C201.508 141.768 199.759 144.115 198.01 146.504C196.303 148.893 194.639 151.112 193.018 153.16C191.439 155.165 189.967 156.787 188.602 158.024C187.236 159.261 186.063 159.88 185.082 159.88ZM239.237 158.216C238.554 158.216 237.978 157.939 237.509 157.384C237.039 156.829 236.805 156.061 236.805 155.08C236.805 154.355 236.954 153.16 237.253 151.496C237.594 149.789 237.957 147.805 238.341 145.544C238.767 143.283 239.13 140.936 239.429 138.504C239.727 136.029 239.877 133.661 239.877 131.4C239.877 130.291 240.154 129.48 240.709 128.968C241.306 128.413 241.967 128.136 242.693 128.136C243.375 128.136 243.887 128.563 244.229 129.416C244.57 130.269 244.634 131.976 244.421 134.536C246.383 130.184 248.538 126.685 250.885 124.04C253.274 121.352 255.642 119.432 257.989 118.28C260.335 117.085 262.447 116.488 264.325 116.488C265.562 116.488 266.458 116.744 267.013 117.256C267.61 117.725 267.909 118.259 267.909 118.856C267.909 119.667 267.567 120.307 266.885 120.776C266.245 121.203 265.114 121.715 263.493 122.312C261.615 123.037 259.887 123.891 258.309 124.872C256.773 125.811 255.301 127.048 253.893 128.584C252.527 130.12 251.183 132.083 249.861 134.472C248.538 136.819 247.215 139.72 245.893 143.176C244.57 146.632 243.162 150.792 241.669 155.656C241.413 156.595 241.071 157.256 240.645 157.64C240.261 158.024 239.791 158.216 239.237 158.216ZM286.1 158.536C285.375 158.536 284.756 158.216 284.244 157.576C283.732 156.936 283.476 155.997 283.476 154.76C283.476 153.309 283.689 151.24 284.116 148.552C284.585 145.864 285.268 142.301 286.164 137.864C285.012 140.595 283.732 143.176 282.324 145.608C280.959 148.04 279.508 150.024 277.972 151.56C276.436 153.096 274.857 153.864 273.236 153.864C271.657 153.864 270.249 153.245 269.012 152.008C267.817 150.771 267.22 148.595 267.22 145.48C267.22 143.731 267.369 141.768 267.668 139.592C267.967 137.373 268.351 135.176 268.82 133C269.289 130.824 269.759 128.883 270.228 127.176C270.697 125.427 271.124 124.147 271.508 123.336C271.807 122.653 272.105 122.205 272.404 121.992C272.703 121.736 273.108 121.608 273.62 121.608C274.217 121.608 274.857 121.864 275.54 122.376C276.223 122.888 276.564 123.741 276.564 124.936C276.564 125.235 276.415 125.939 276.116 127.048C275.86 128.115 275.519 129.437 275.092 131.016C274.708 132.552 274.303 134.216 273.876 136.008C273.449 137.8 273.087 139.592 272.788 141.384C272.532 143.176 272.404 144.819 272.404 146.312C272.404 147.123 272.489 147.784 272.66 148.296C272.831 148.808 273.257 149.064 273.94 149.064C274.537 149.064 275.284 148.467 276.18 147.272C277.119 146.077 278.121 144.499 279.188 142.536C280.297 140.531 281.428 138.312 282.58 135.88C283.775 133.448 284.927 130.952 286.036 128.392C287.188 125.832 288.233 123.4 289.172 121.096C289.513 120.328 289.876 119.859 290.26 119.688C290.644 119.475 291.071 119.368 291.54 119.368C292.308 119.368 292.991 119.688 293.588 120.328C294.228 120.925 294.548 121.715 294.548 122.696C294.548 123.336 294.42 124.445 294.164 126.024C293.951 127.603 293.631 129.459 293.204 131.592C292.82 133.683 292.372 135.901 291.86 138.248C291.391 140.595 290.921 142.92 290.452 145.224C289.983 147.485 289.535 149.555 289.108 151.432C288.724 153.309 288.404 154.824 288.148 155.976C287.935 157.043 287.636 157.725 287.252 158.024C286.911 158.365 286.527 158.536 286.1 158.536ZM307.724 155.528C306.486 155.528 305.377 154.824 304.396 153.416C303.414 152.008 302.924 150.195 302.924 147.976C302.924 145.544 303.244 142.941 303.884 140.168C304.566 137.395 305.398 134.579 306.38 131.72C307.361 128.819 308.321 126.024 309.26 123.336C309.473 122.781 309.772 122.376 310.156 122.12C310.582 121.821 311.222 121.672 312.076 121.672C313.612 121.672 314.38 122.419 314.38 123.912C314.38 124.253 314.209 125.021 313.868 126.216C313.526 127.411 313.078 128.883 312.524 130.632C312.012 132.381 311.478 134.28 310.924 136.328C310.369 138.333 309.878 140.36 309.452 142.408C309.025 144.456 308.726 146.355 308.556 148.104C309.238 147.379 310.006 146.269 310.86 144.776C311.756 143.283 312.716 141.597 313.74 139.72C314.764 137.8 315.83 135.88 316.94 133.96C318.049 131.997 319.158 130.205 320.268 128.584C321.42 126.92 322.529 125.597 323.596 124.616C324.705 123.592 325.729 123.08 326.668 123.08C328.033 123.08 329.185 123.507 330.124 124.36C331.105 125.171 331.852 126.621 332.364 128.712C332.918 130.76 333.196 133.661 333.196 137.416C333.196 139.421 333.388 141.299 333.772 143.048C334.198 144.797 334.86 146.205 335.756 147.272C336.694 148.296 337.889 148.808 339.34 148.808C341.516 148.808 343.457 148.424 345.164 147.656C346.87 146.845 348.342 145.949 349.58 144.968C350.86 143.944 351.926 143.048 352.78 142.28C353.633 141.469 354.294 141.064 354.764 141.064C355.745 141.064 356.236 141.576 356.236 142.6C356.236 143.027 355.916 143.709 355.276 144.648C354.678 145.544 353.825 146.568 352.716 147.72C351.649 148.829 350.412 149.917 349.004 150.984C347.638 152.008 346.166 152.861 344.588 153.544C343.052 154.227 341.494 154.568 339.916 154.568C336.972 154.568 334.561 153.992 332.684 152.84C330.849 151.688 329.484 149.789 328.588 147.144C327.734 144.499 327.308 140.957 327.308 136.52C327.308 134.088 327.158 132.317 326.86 131.208C326.604 130.056 326.113 129.288 325.388 128.904C324.876 129.8 324.214 131.08 323.404 132.744C322.593 134.365 321.654 136.179 320.588 138.184C319.564 140.189 318.476 142.216 317.324 144.264C316.214 146.269 315.084 148.125 313.932 149.832C312.78 151.539 311.67 152.925 310.604 153.992C309.537 155.016 308.577 155.528 307.724 155.528ZM356.163 173.896C352.877 173.896 350.467 173.576 348.931 172.936C347.395 172.296 346.627 171.443 346.627 170.376C346.627 169.693 346.84 169.139 347.267 168.712C347.736 168.285 348.312 168.072 348.995 168.072C349.72 168.072 350.765 168.179 352.131 168.392C353.496 168.648 354.84 168.776 356.163 168.776C360.557 168.776 364.163 167.475 366.979 164.872C369.795 162.269 371.949 158.28 373.443 152.904C374.936 147.485 375.939 140.573 376.451 132.168C375.171 134.771 373.72 137.373 372.099 139.976C370.52 142.536 368.813 144.883 366.979 147.016C365.187 149.107 363.331 150.792 361.411 152.072C359.491 153.352 357.592 153.992 355.715 153.992C353.923 153.992 352.6 153.544 351.747 152.648C350.936 151.752 350.531 150.28 350.531 148.232C350.531 146.397 351.043 144.456 352.067 142.408C353.091 140.317 354.456 138.227 356.163 136.136C357.869 134.045 359.747 132.061 361.795 130.184C363.843 128.264 365.891 126.579 367.939 125.128C370.029 123.635 371.971 122.461 373.763 121.608C375.555 120.755 377.005 120.328 378.115 120.328C379.224 120.328 380.077 120.712 380.675 121.48C381.272 122.248 381.571 123.699 381.571 125.832C381.571 130.824 381.4 135.688 381.059 140.424C380.76 145.117 380.141 149.491 379.203 153.544C378.264 157.597 376.856 161.139 374.979 164.168C373.144 167.24 370.691 169.629 367.619 171.336C364.547 173.043 360.728 173.896 356.163 173.896ZM375.299 125.896C373.165 127.261 370.968 128.797 368.707 130.504C366.445 132.211 364.333 134.024 362.371 135.944C360.451 137.864 358.893 139.848 357.699 141.896C356.504 143.944 355.907 145.992 355.907 148.04C355.907 148.68 356.312 149 357.123 149C357.763 149 358.637 148.509 359.747 147.528C360.899 146.504 362.179 145.16 363.587 143.496C364.995 141.789 366.424 139.933 367.875 137.928C369.368 135.88 370.755 133.811 372.035 131.72C373.315 129.629 374.403 127.688 375.299 125.896Z" fill="#FF6200"/>
<path d="M14 190.863C65.1109 178.52 221.512 152.622 376.737 186.221C379.161 186.746 378.575 189.853 376.109 189.581C283.413 179.39 229.874 175.656 179.739 182.086C177.32 182.397 177.571 185.824 180.01 185.902C207.831 186.803 244.494 189.911 260.529 197.93" stroke="#23170C" stroke-width="5" stroke-linecap="round"/>
<path d="M16 191.863C67.1109 179.52 223.512 153.622 378.737 187.221C381.161 187.746 380.575 190.853 378.109 190.581C285.413 180.39 231.874 176.656 181.739 183.086C179.32 183.397 179.571 186.824 182.01 186.902C209.831 187.803 246.494 190.911 262.529 198.93" stroke="#FF6200" stroke-width="5" stroke-linecap="round"/>
</g>
<defs>
<clipPath id="clip0_33_2">
<rect width="398" height="216" fill="white"/>
</clipPath>
</defs>
</svg>
