<?xml version="1.0" encoding="utf-8"?>
<!-- Generator: Adobe Illustrator 28.0.0, SVG Export Plug-In . SVG Version: 6.00 Build 0)  -->
<svg version="1.1" id="Ebene_1" xmlns="http://www.w3.org/2000/svg" xmlns:xlink="http://www.w3.org/1999/xlink" x="0px" y="0px"
	 viewBox="0 0 250 250" style="enable-background:new 0 0 250 250;" xml:space="preserve">
<style type="text/css">
	.st0{fill:none;stroke:#000000;stroke-width:5;stroke-linecap:round;stroke-linejoin:round;stroke-miterlimit:10;}
</style>
<g>
	<path class="st0" d="M224.83,58.92c-20.36,21.23-55.01,21.05-55.01,21.05s-1.64-34.61,18.72-55.84s55.01-21.05,55.01-21.05
		S245.19,37.68,224.83,58.92z"/>
	<path class="st0" d="M188.25,143.87c-29.28-2.8-50.63-30.08-50.63-30.08s26.13-22.75,55.41-19.96s50.63,30.08,50.63,30.08
		S217.53,146.66,188.25,143.87z"/>
	<path class="st0" d="M138.95,195.28c-29.28-2.8-50.63-30.08-50.63-30.08s26.13-22.75,55.41-19.96
		c29.28,2.8,50.63,30.08,50.63,30.08S168.24,198.07,138.95,195.28z"/>
	<path class="st0" d="M89.66,246.69c-29.28-2.8-50.63-30.08-50.63-30.08s26.13-22.75,55.41-19.96c29.28,2.8,50.63,30.08,50.63,30.08
		S118.94,249.48,89.66,246.69z"/>
	<path class="st0" d="M105.43,64.46c4.02,29.14,32.18,49.33,32.18,49.33s21.63-27.06,17.61-56.2S123.04,8.26,123.04,8.26
		S101.41,35.32,105.43,64.46z"/>
	<path class="st0" d="M56.14,115.87c4.02,29.14,32.18,49.33,32.18,49.33s21.63-27.06,17.61-56.2
		c-4.02-29.14-32.18-49.33-32.18-49.33S52.11,86.73,56.14,115.87z"/>
	<path class="st0" d="M6.84,167.28c4.02,29.14,32.18,49.33,32.18,49.33s21.63-27.06,17.61-56.2s-32.18-49.33-32.18-49.33
		S2.82,138.14,6.84,167.28z"/>
	<line class="st0" x1="169.82" y1="79.97" x2="16.78" y2="239.58"/>
</g>
</svg>
