<?xml version="1.0" encoding="utf-8"?>
<!-- Generator: Adobe Illustrator 28.0.0, SVG Export Plug-In . SVG Version: 6.00 Build 0)  -->
<svg version="1.1" id="Ebene_1" xmlns="http://www.w3.org/2000/svg" xmlns:xlink="http://www.w3.org/1999/xlink" x="0px" y="0px"
	 viewBox="0 0 250 250" style="enable-background:new 0 0 250 250;" xml:space="preserve">
<style type="text/css">
	.st0{fill:none;stroke:#000000;stroke-width:5;stroke-linecap:round;stroke-linejoin:round;stroke-miterlimit:10;}
</style>
<g>
	<path class="st0" d="M223.63,43.58C180.73,0.06,51.47,0.42,9.55,43.97c-7.46,7.75-9.36,18.78,0.06,23.98l12.58,7.73v142.07h189.5
		V74.69l11.82-6.81C233.34,62.79,231.39,51.46,223.63,43.58z"/>
	<path class="st0" d="M223.63,43.58c15.78,15.34,30.84,40.34,21.01,45.42l-11.82,6.81v143.07H43.32l-21.12-21.13"/>
	<line class="st0" x1="147.88" y1="181.79" x2="156.93" y2="181.79"/>
	<line class="st0" x1="171.27" y1="86.11" x2="180.32" y2="86.11"/>
	<line class="st0" x1="55.52" y1="108.75" x2="64.57" y2="108.75"/>
	<line class="st0" x1="101.75" y1="48.93" x2="110.81" y2="48.93"/>
	<line class="st0" x1="131.47" y1="136.97" x2="140.52" y2="136.97"/>
</g>
</svg>
