<?xml version="1.0" encoding="utf-8"?>
<!-- Generator: Adobe Illustrator 28.0.0, SVG Export Plug-In . SVG Version: 6.00 Build 0)  -->
<svg version="1.1" id="Ebene_1" xmlns="http://www.w3.org/2000/svg" xmlns:xlink="http://www.w3.org/1999/xlink" x="0px" y="0px"
	 viewBox="0 0 250 250" style="enable-background:new 0 0 250 250;" xml:space="preserve">
<style type="text/css">
	.st0{fill:none;stroke:#000000;stroke-width:5;stroke-linecap:round;stroke-linejoin:round;stroke-miterlimit:10;}
</style>
<g>
	<path class="st0" d="M27.37,87.52c0-17.14,13.95-31.09,31.09-31.09"/>
	<path class="st0" d="M244.85,103.45c0,27.36-20.62,49.9-47.17,52.95l-5.59,62.64l-2.56,28.8H44.07l-2.56-28.8l-7.51-84.15
		c-17.13-8.86-28.85-26.74-28.85-47.37c0-29.44,23.87-53.31,53.31-53.31c5.51,0,10.85,0.83,15.84,2.39
		c7.62-20.13,27.07-34.45,49.87-34.45c28.31,0,51.44,22.05,53.2,49.92c4.5-1.24,9.26-1.93,14.16-1.93
		C220.98,50.14,244.85,74.01,244.85,103.45z"/>
	<polygon class="st0" points="192.09,219.04 189.53,247.85 44.07,247.85 41.5,219.04 	"/>
</g>
</svg>
