<?xml version="1.0" encoding="utf-8"?>
<!-- Generator: Adobe Illustrator 28.0.0, SVG Export Plug-In . SVG Version: 6.00 Build 0)  -->
<svg version="1.1" id="Ebene_1" xmlns="http://www.w3.org/2000/svg" xmlns:xlink="http://www.w3.org/1999/xlink" x="0px" y="0px"
	 viewBox="0 0 250 250" style="enable-background:new 0 0 250 250;" xml:space="preserve">
<style type="text/css">
	.st0{fill:none;stroke:#000000;stroke-width:5;stroke-linecap:round;stroke-linejoin:round;stroke-miterlimit:10;}
</style>
<g>
	<path class="st0" d="M83.58,154.19c0,29.2-30.89,31.35-25.37,60.17c3.42,17.83,13.1,24.76,19.57,33.31H28.94
		c-7.43-9.94-16.3-16.08-16.3-35.08c0-29.19,25.53-29.19,25.53-58.39c0-29.19-25.53-29.19-25.53-58.39
		c0-29.19,25.53-29.19,25.53-58.39c0-17.78-11.08-25.36-18.74-35.1h47.86c7.42,9.94,16.29,16.08,16.29,35.08
		c0,29.2-25.53,29.2-25.53,58.39S83.58,124.99,83.58,154.19z"/>
	<path class="st0" d="M161.07,154.19c0,29.2-30.89,31.35-25.37,60.17c3.42,17.83,13.1,24.76,19.57,33.31h-48.84
		c-7.43-9.94-16.3-16.08-16.3-35.08c0-29.19,25.53-29.19,25.53-58.39c0-29.19-25.53-29.19-25.53-58.39
		c0-29.19,25.53-29.19,25.53-58.39c0-17.78-11.08-25.36-18.74-35.1h47.86c7.42,9.94,16.29,16.08,16.29,35.08
		c0,29.2-25.53,29.2-25.53,58.39S161.07,124.99,161.07,154.19z"/>
	<path class="st0" d="M238.57,154.19c0,29.2-30.89,31.35-25.37,60.17c3.42,17.83,13.1,24.76,19.57,33.31h-48.84
		c-7.43-9.94-16.3-16.08-16.3-35.08c0-29.19,25.53-29.19,25.53-58.39c0-29.19-25.53-29.19-25.53-58.39
		c0-29.19,25.53-29.19,25.53-58.39c0-17.78-11.08-25.36-18.74-35.1h47.86c7.42,9.94,16.29,16.08,16.29,35.08
		c0,29.2-25.53,29.2-25.53,58.39S238.57,124.99,238.57,154.19z"/>
</g>
</svg>
