<?xml version="1.0" encoding="utf-8"?>
<!-- Generator: Adobe Illustrator 28.0.0, SVG Export Plug-In . SVG Version: 6.00 Build 0)  -->
<svg version="1.1" id="Ebene_1" xmlns="http://www.w3.org/2000/svg" xmlns:xlink="http://www.w3.org/1999/xlink" x="0px" y="0px"
	 viewBox="0 0 250 250" style="enable-background:new 0 0 250 250;" xml:space="preserve">
<style type="text/css">
	.st0{fill:none;stroke:#000000;stroke-width:5;stroke-linecap:round;stroke-linejoin:round;stroke-miterlimit:10;}
</style>
<g>
	<g>
		<path class="st0" d="M124.8,2.72c12.56,72.41,129.22,144.7,63.15,217.2c-15.95,17.5-38.91,27.33-62.87,27.36h0
			c-23.96,0.03-46.94-9.75-62.93-27.22C-4.08,147.7,112.41,75.16,124.8,2.72L124.8,2.72z"/>
	</g>
	<g>
		<path class="st0" d="M124.96,143.4c5.33,30.75,54.89,61.46,26.82,92.25c-6.77,7.43-16.53,11.61-26.7,11.62h0
			c-10.18,0.01-19.94-4.14-26.73-11.56C70.22,204.98,119.7,174.17,124.96,143.4L124.96,143.4z"/>
	</g>
	<g>
		<path class="st0" d="M125.89,69.09c9.14,52.72,94.09,105.36,45.98,158.14c-11.61,12.74-28.33,19.9-45.77,19.92h0
			c-17.45,0.02-34.18-7.1-45.82-19.82C32.05,174.65,116.87,121.83,125.89,69.09L125.89,69.09z"/>
	</g>
</g>
</svg>
